%TF.GenerationSoftware,KiCad,Pcbnew,(6.0.9-0)*%
%TF.CreationDate,2023-01-07T16:42:32-08:00*%
%TF.ProjectId,Pong,506f6e67-2e6b-4696-9361-645f70636258,rev?*%
%TF.SameCoordinates,Original*%
%TF.FileFunction,Legend,Top*%
%TF.FilePolarity,Positive*%
%FSLAX46Y46*%
G04 Gerber Fmt 4.6, Leading zero omitted, Abs format (unit mm)*
G04 Created by KiCad (PCBNEW (6.0.9-0)) date 2023-01-07 16:42:32*
%MOMM*%
%LPD*%
G01*
G04 APERTURE LIST*
%ADD10C,0.100000*%
%ADD11C,0.150000*%
%ADD12C,0.300000*%
%ADD13C,0.120000*%
%ADD14C,0.127000*%
%ADD15C,0.200000*%
G04 APERTURE END LIST*
D10*
X66033928Y-44274880D02*
X66033928Y-43274880D01*
X66462499Y-44274880D02*
X66462499Y-43751071D01*
X66414880Y-43655833D01*
X66319642Y-43608214D01*
X66176785Y-43608214D01*
X66081547Y-43655833D01*
X66033928Y-43703452D01*
X66795833Y-43608214D02*
X67176785Y-43608214D01*
X66938690Y-43274880D02*
X66938690Y-44132023D01*
X66986309Y-44227261D01*
X67081547Y-44274880D01*
X67176785Y-44274880D01*
X67367261Y-43608214D02*
X67748214Y-43608214D01*
X67510119Y-43274880D02*
X67510119Y-44132023D01*
X67557738Y-44227261D01*
X67652976Y-44274880D01*
X67748214Y-44274880D01*
X68081547Y-43608214D02*
X68081547Y-44608214D01*
X68081547Y-43655833D02*
X68176785Y-43608214D01*
X68367261Y-43608214D01*
X68462500Y-43655833D01*
X68510119Y-43703452D01*
X68557738Y-43798690D01*
X68557738Y-44084404D01*
X68510119Y-44179642D01*
X68462500Y-44227261D01*
X68367261Y-44274880D01*
X68176785Y-44274880D01*
X68081547Y-44227261D01*
X68986309Y-44179642D02*
X69033928Y-44227261D01*
X68986309Y-44274880D01*
X68938690Y-44227261D01*
X68986309Y-44179642D01*
X68986309Y-44274880D01*
X68986309Y-43655833D02*
X69033928Y-43703452D01*
X68986309Y-43751071D01*
X68938690Y-43703452D01*
X68986309Y-43655833D01*
X68986309Y-43751071D01*
X70176785Y-43227261D02*
X69319642Y-44512976D01*
X71224404Y-43227261D02*
X70367261Y-44512976D01*
X71986309Y-43608214D02*
X71986309Y-44417738D01*
X71938690Y-44512976D01*
X71891071Y-44560595D01*
X71795833Y-44608214D01*
X71652976Y-44608214D01*
X71557738Y-44560595D01*
X71986309Y-44227261D02*
X71891071Y-44274880D01*
X71700595Y-44274880D01*
X71605357Y-44227261D01*
X71557738Y-44179642D01*
X71510119Y-44084404D01*
X71510119Y-43798690D01*
X71557738Y-43703452D01*
X71605357Y-43655833D01*
X71700595Y-43608214D01*
X71891071Y-43608214D01*
X71986309Y-43655833D01*
X72462500Y-44274880D02*
X72462500Y-43608214D01*
X72462500Y-43274880D02*
X72414880Y-43322500D01*
X72462500Y-43370119D01*
X72510119Y-43322500D01*
X72462500Y-43274880D01*
X72462500Y-43370119D01*
X72795833Y-43608214D02*
X73176785Y-43608214D01*
X72938690Y-43274880D02*
X72938690Y-44132023D01*
X72986309Y-44227261D01*
X73081547Y-44274880D01*
X73176785Y-44274880D01*
X73510119Y-44274880D02*
X73510119Y-43274880D01*
X73938690Y-44274880D02*
X73938690Y-43751071D01*
X73891071Y-43655833D01*
X73795833Y-43608214D01*
X73652976Y-43608214D01*
X73557738Y-43655833D01*
X73510119Y-43703452D01*
X74843452Y-43608214D02*
X74843452Y-44274880D01*
X74414880Y-43608214D02*
X74414880Y-44132023D01*
X74462500Y-44227261D01*
X74557738Y-44274880D01*
X74700595Y-44274880D01*
X74795833Y-44227261D01*
X74843452Y-44179642D01*
X75319642Y-44274880D02*
X75319642Y-43274880D01*
X75319642Y-43655833D02*
X75414880Y-43608214D01*
X75605357Y-43608214D01*
X75700595Y-43655833D01*
X75748214Y-43703452D01*
X75795833Y-43798690D01*
X75795833Y-44084404D01*
X75748214Y-44179642D01*
X75700595Y-44227261D01*
X75605357Y-44274880D01*
X75414880Y-44274880D01*
X75319642Y-44227261D01*
X76224404Y-44179642D02*
X76272023Y-44227261D01*
X76224404Y-44274880D01*
X76176785Y-44227261D01*
X76224404Y-44179642D01*
X76224404Y-44274880D01*
X77129166Y-44227261D02*
X77033928Y-44274880D01*
X76843452Y-44274880D01*
X76748214Y-44227261D01*
X76700595Y-44179642D01*
X76652976Y-44084404D01*
X76652976Y-43798690D01*
X76700595Y-43703452D01*
X76748214Y-43655833D01*
X76843452Y-43608214D01*
X77033928Y-43608214D01*
X77129166Y-43655833D01*
X77700595Y-44274880D02*
X77605357Y-44227261D01*
X77557738Y-44179642D01*
X77510119Y-44084404D01*
X77510119Y-43798690D01*
X77557738Y-43703452D01*
X77605357Y-43655833D01*
X77700595Y-43608214D01*
X77843452Y-43608214D01*
X77938690Y-43655833D01*
X77986309Y-43703452D01*
X78033928Y-43798690D01*
X78033928Y-44084404D01*
X77986309Y-44179642D01*
X77938690Y-44227261D01*
X77843452Y-44274880D01*
X77700595Y-44274880D01*
X78462500Y-44274880D02*
X78462500Y-43608214D01*
X78462500Y-43703452D02*
X78510119Y-43655833D01*
X78605357Y-43608214D01*
X78748214Y-43608214D01*
X78843452Y-43655833D01*
X78891071Y-43751071D01*
X78891071Y-44274880D01*
X78891071Y-43751071D02*
X78938690Y-43655833D01*
X79033928Y-43608214D01*
X79176785Y-43608214D01*
X79272023Y-43655833D01*
X79319642Y-43751071D01*
X79319642Y-44274880D01*
X80510119Y-43227261D02*
X79652976Y-44512976D01*
X80843452Y-44274880D02*
X80843452Y-43274880D01*
X81224404Y-43274880D01*
X81319642Y-43322500D01*
X81367261Y-43370119D01*
X81414880Y-43465357D01*
X81414880Y-43608214D01*
X81367261Y-43703452D01*
X81319642Y-43751071D01*
X81224404Y-43798690D01*
X80843452Y-43798690D01*
X81986309Y-44274880D02*
X81891071Y-44227261D01*
X81843452Y-44132023D01*
X81843452Y-43274880D01*
X82795833Y-43608214D02*
X82795833Y-44274880D01*
X82367261Y-43608214D02*
X82367261Y-44132023D01*
X82414880Y-44227261D01*
X82510119Y-44274880D01*
X82652976Y-44274880D01*
X82748214Y-44227261D01*
X82795833Y-44179642D01*
X83272023Y-44274880D02*
X83272023Y-43608214D01*
X83272023Y-43703452D02*
X83319642Y-43655833D01*
X83414880Y-43608214D01*
X83557738Y-43608214D01*
X83652976Y-43655833D01*
X83700595Y-43751071D01*
X83700595Y-44274880D01*
X83700595Y-43751071D02*
X83748214Y-43655833D01*
X83843452Y-43608214D01*
X83986309Y-43608214D01*
X84081547Y-43655833D01*
X84129166Y-43751071D01*
X84129166Y-44274880D01*
X84605357Y-44274880D02*
X84605357Y-43608214D01*
X84605357Y-43703452D02*
X84652976Y-43655833D01*
X84748214Y-43608214D01*
X84891071Y-43608214D01*
X84986309Y-43655833D01*
X85033928Y-43751071D01*
X85033928Y-44274880D01*
X85033928Y-43751071D02*
X85081547Y-43655833D01*
X85176785Y-43608214D01*
X85319642Y-43608214D01*
X85414880Y-43655833D01*
X85462500Y-43751071D01*
X85462500Y-44274880D01*
X86319642Y-44227261D02*
X86224404Y-44274880D01*
X86033928Y-44274880D01*
X85938690Y-44227261D01*
X85891071Y-44132023D01*
X85891071Y-43751071D01*
X85938690Y-43655833D01*
X86033928Y-43608214D01*
X86224404Y-43608214D01*
X86319642Y-43655833D01*
X86367261Y-43751071D01*
X86367261Y-43846309D01*
X85891071Y-43941547D01*
X86795833Y-44274880D02*
X86795833Y-43608214D01*
X86795833Y-43798690D02*
X86843452Y-43703452D01*
X86891071Y-43655833D01*
X86986309Y-43608214D01*
X87081547Y-43608214D01*
X87367261Y-44227261D02*
X87462500Y-44274880D01*
X87652976Y-44274880D01*
X87748214Y-44227261D01*
X87795833Y-44132023D01*
X87795833Y-44084404D01*
X87748214Y-43989166D01*
X87652976Y-43941547D01*
X87510119Y-43941547D01*
X87414880Y-43893928D01*
X87367261Y-43798690D01*
X87367261Y-43751071D01*
X87414880Y-43655833D01*
X87510119Y-43608214D01*
X87652976Y-43608214D01*
X87748214Y-43655833D01*
X88176785Y-44227261D02*
X88319642Y-44274880D01*
X88557738Y-44274880D01*
X88652976Y-44227261D01*
X88700595Y-44179642D01*
X88748214Y-44084404D01*
X88748214Y-43989166D01*
X88700595Y-43893928D01*
X88652976Y-43846309D01*
X88557738Y-43798690D01*
X88367261Y-43751071D01*
X88272023Y-43703452D01*
X88224404Y-43655833D01*
X88176785Y-43560595D01*
X88176785Y-43465357D01*
X88224404Y-43370119D01*
X88272023Y-43322500D01*
X88367261Y-43274880D01*
X88605357Y-43274880D01*
X88748214Y-43322500D01*
X89319642Y-44274880D02*
X89224404Y-44227261D01*
X89176785Y-44179642D01*
X89129166Y-44084404D01*
X89129166Y-43798690D01*
X89176785Y-43703452D01*
X89224404Y-43655833D01*
X89319642Y-43608214D01*
X89462499Y-43608214D01*
X89557738Y-43655833D01*
X89605357Y-43703452D01*
X89652976Y-43798690D01*
X89652976Y-44084404D01*
X89605357Y-44179642D01*
X89557738Y-44227261D01*
X89462499Y-44274880D01*
X89319642Y-44274880D01*
X89938690Y-43608214D02*
X90319642Y-43608214D01*
X90081547Y-44274880D02*
X90081547Y-43417738D01*
X90129166Y-43322500D01*
X90224404Y-43274880D01*
X90319642Y-43274880D01*
X90510119Y-43608214D02*
X90891071Y-43608214D01*
X90652976Y-43274880D02*
X90652976Y-44132023D01*
X90700595Y-44227261D01*
X90795833Y-44274880D01*
X90891071Y-44274880D01*
X91129166Y-43608214D02*
X91319642Y-44274880D01*
X91510119Y-43798690D01*
X91700595Y-44274880D01*
X91891071Y-43608214D01*
X92700595Y-44274880D02*
X92700595Y-43751071D01*
X92652976Y-43655833D01*
X92557738Y-43608214D01*
X92367261Y-43608214D01*
X92272023Y-43655833D01*
X92700595Y-44227261D02*
X92605357Y-44274880D01*
X92367261Y-44274880D01*
X92272023Y-44227261D01*
X92224404Y-44132023D01*
X92224404Y-44036785D01*
X92272023Y-43941547D01*
X92367261Y-43893928D01*
X92605357Y-43893928D01*
X92700595Y-43846309D01*
X93176785Y-44274880D02*
X93176785Y-43608214D01*
X93176785Y-43798690D02*
X93224404Y-43703452D01*
X93272023Y-43655833D01*
X93367261Y-43608214D01*
X93462499Y-43608214D01*
X94176785Y-44227261D02*
X94081547Y-44274880D01*
X93891071Y-44274880D01*
X93795833Y-44227261D01*
X93748214Y-44132023D01*
X93748214Y-43751071D01*
X93795833Y-43655833D01*
X93891071Y-43608214D01*
X94081547Y-43608214D01*
X94176785Y-43655833D01*
X94224404Y-43751071D01*
X94224404Y-43846309D01*
X93748214Y-43941547D01*
X95129166Y-44274880D02*
X94652976Y-44274880D01*
X94652976Y-43274880D01*
X95938690Y-44274880D02*
X95462499Y-44274880D01*
X95462499Y-43274880D01*
X96843452Y-44179642D02*
X96795833Y-44227261D01*
X96652976Y-44274880D01*
X96557738Y-44274880D01*
X96414880Y-44227261D01*
X96319642Y-44132023D01*
X96272023Y-44036785D01*
X96224404Y-43846309D01*
X96224404Y-43703452D01*
X96272023Y-43512976D01*
X96319642Y-43417738D01*
X96414880Y-43322500D01*
X96557738Y-43274880D01*
X96652976Y-43274880D01*
X96795833Y-43322500D01*
X96843452Y-43370119D01*
X97986309Y-43227261D02*
X97129166Y-44512976D01*
X98176785Y-43274880D02*
X98748214Y-43274880D01*
X98462499Y-44274880D02*
X98462499Y-43274880D01*
X99462499Y-44227261D02*
X99367261Y-44274880D01*
X99176785Y-44274880D01*
X99081547Y-44227261D01*
X99033928Y-44132023D01*
X99033928Y-43751071D01*
X99081547Y-43655833D01*
X99176785Y-43608214D01*
X99367261Y-43608214D01*
X99462499Y-43655833D01*
X99510119Y-43751071D01*
X99510119Y-43846309D01*
X99033928Y-43941547D01*
X100081547Y-44274880D02*
X99986309Y-44227261D01*
X99938690Y-44132023D01*
X99938690Y-43274880D01*
X100414880Y-44227261D02*
X100510119Y-44274880D01*
X100700595Y-44274880D01*
X100795833Y-44227261D01*
X100843452Y-44132023D01*
X100843452Y-44084404D01*
X100795833Y-43989166D01*
X100700595Y-43941547D01*
X100557738Y-43941547D01*
X100462499Y-43893928D01*
X100414880Y-43798690D01*
X100414880Y-43751071D01*
X100462499Y-43655833D01*
X100557738Y-43608214D01*
X100700595Y-43608214D01*
X100795833Y-43655833D01*
X101129166Y-43608214D02*
X101510119Y-43608214D01*
X101272023Y-43274880D02*
X101272023Y-44132023D01*
X101319642Y-44227261D01*
X101414880Y-44274880D01*
X101510119Y-44274880D01*
X102272023Y-44274880D02*
X102272023Y-43751071D01*
X102224404Y-43655833D01*
X102129166Y-43608214D01*
X101938690Y-43608214D01*
X101843452Y-43655833D01*
X102272023Y-44227261D02*
X102176785Y-44274880D01*
X101938690Y-44274880D01*
X101843452Y-44227261D01*
X101795833Y-44132023D01*
X101795833Y-44036785D01*
X101843452Y-43941547D01*
X101938690Y-43893928D01*
X102176785Y-43893928D01*
X102272023Y-43846309D01*
X102748214Y-44274880D02*
X102748214Y-43608214D01*
X102748214Y-43798690D02*
X102795833Y-43703452D01*
X102843452Y-43655833D01*
X102938690Y-43608214D01*
X103033928Y-43608214D01*
D11*
X127766605Y-129927837D02*
X127718986Y-129880218D01*
X127623748Y-129737361D01*
X127576129Y-129642123D01*
X127528510Y-129499265D01*
X127480891Y-129261170D01*
X127480891Y-129070694D01*
X127528510Y-128832599D01*
X127576129Y-128689742D01*
X127623748Y-128594504D01*
X127718986Y-128451646D01*
X127766605Y-128404027D01*
X128576129Y-129499265D02*
X128480891Y-129546884D01*
X128290415Y-129546884D01*
X128195177Y-129499265D01*
X128147558Y-129451646D01*
X128099939Y-129356408D01*
X128099939Y-129070694D01*
X128147558Y-128975456D01*
X128195177Y-128927837D01*
X128290415Y-128880218D01*
X128480891Y-128880218D01*
X128576129Y-128927837D01*
X128909462Y-129927837D02*
X128957081Y-129880218D01*
X129052319Y-129737361D01*
X129099939Y-129642123D01*
X129147558Y-129499265D01*
X129195177Y-129261170D01*
X129195177Y-129070694D01*
X129147558Y-128832599D01*
X129099939Y-128689742D01*
X129052319Y-128594504D01*
X128957081Y-128451646D01*
X128909462Y-128404027D01*
X130385653Y-128642123D02*
X130433272Y-128594504D01*
X130528510Y-128546884D01*
X130766605Y-128546884D01*
X130861843Y-128594504D01*
X130909462Y-128642123D01*
X130957081Y-128737361D01*
X130957081Y-128832599D01*
X130909462Y-128975456D01*
X130338034Y-129546884D01*
X130957081Y-129546884D01*
X131576129Y-128546884D02*
X131671367Y-128546884D01*
X131766605Y-128594504D01*
X131814224Y-128642123D01*
X131861843Y-128737361D01*
X131909462Y-128927837D01*
X131909462Y-129165932D01*
X131861843Y-129356408D01*
X131814224Y-129451646D01*
X131766605Y-129499265D01*
X131671367Y-129546884D01*
X131576129Y-129546884D01*
X131480891Y-129499265D01*
X131433272Y-129451646D01*
X131385653Y-129356408D01*
X131338034Y-129165932D01*
X131338034Y-128927837D01*
X131385653Y-128737361D01*
X131433272Y-128642123D01*
X131480891Y-128594504D01*
X131576129Y-128546884D01*
X132290415Y-128642123D02*
X132338034Y-128594504D01*
X132433272Y-128546884D01*
X132671367Y-128546884D01*
X132766605Y-128594504D01*
X132814224Y-128642123D01*
X132861843Y-128737361D01*
X132861843Y-128832599D01*
X132814224Y-128975456D01*
X132242796Y-129546884D01*
X132861843Y-129546884D01*
X133195177Y-128546884D02*
X133814224Y-128546884D01*
X133480891Y-128927837D01*
X133623748Y-128927837D01*
X133718986Y-128975456D01*
X133766605Y-129023075D01*
X133814224Y-129118313D01*
X133814224Y-129356408D01*
X133766605Y-129451646D01*
X133718986Y-129499265D01*
X133623748Y-129546884D01*
X133338034Y-129546884D01*
X133242796Y-129499265D01*
X133195177Y-129451646D01*
X135004700Y-129546884D02*
X135004700Y-128546884D01*
X135385653Y-128546884D01*
X135480891Y-128594504D01*
X135528510Y-128642123D01*
X135576129Y-128737361D01*
X135576129Y-128880218D01*
X135528510Y-128975456D01*
X135480891Y-129023075D01*
X135385653Y-129070694D01*
X135004700Y-129070694D01*
X136147558Y-129546884D02*
X136052320Y-129499265D01*
X136004700Y-129404027D01*
X136004700Y-128546884D01*
X136957081Y-128880218D02*
X136957081Y-129546884D01*
X136528510Y-128880218D02*
X136528510Y-129404027D01*
X136576129Y-129499265D01*
X136671367Y-129546884D01*
X136814224Y-129546884D01*
X136909462Y-129499265D01*
X136957081Y-129451646D01*
X137433272Y-129546884D02*
X137433272Y-128880218D01*
X137433272Y-128975456D02*
X137480891Y-128927837D01*
X137576129Y-128880218D01*
X137718986Y-128880218D01*
X137814224Y-128927837D01*
X137861843Y-129023075D01*
X137861843Y-129546884D01*
X137861843Y-129023075D02*
X137909462Y-128927837D01*
X138004700Y-128880218D01*
X138147558Y-128880218D01*
X138242796Y-128927837D01*
X138290415Y-129023075D01*
X138290415Y-129546884D01*
X138766605Y-129546884D02*
X138766605Y-128880218D01*
X138766605Y-128975456D02*
X138814224Y-128927837D01*
X138909462Y-128880218D01*
X139052320Y-128880218D01*
X139147558Y-128927837D01*
X139195177Y-129023075D01*
X139195177Y-129546884D01*
X139195177Y-129023075D02*
X139242796Y-128927837D01*
X139338034Y-128880218D01*
X139480891Y-128880218D01*
X139576129Y-128927837D01*
X139623748Y-129023075D01*
X139623748Y-129546884D01*
X140480891Y-129499265D02*
X140385653Y-129546884D01*
X140195177Y-129546884D01*
X140099939Y-129499265D01*
X140052320Y-129404027D01*
X140052320Y-129023075D01*
X140099939Y-128927837D01*
X140195177Y-128880218D01*
X140385653Y-128880218D01*
X140480891Y-128927837D01*
X140528510Y-129023075D01*
X140528510Y-129118313D01*
X140052320Y-129213551D01*
X140957081Y-129546884D02*
X140957081Y-128880218D01*
X140957081Y-129070694D02*
X141004700Y-128975456D01*
X141052320Y-128927837D01*
X141147558Y-128880218D01*
X141242796Y-128880218D01*
X141623748Y-128546884D02*
X141528510Y-128737361D01*
X142004700Y-129499265D02*
X142099939Y-129546884D01*
X142290415Y-129546884D01*
X142385653Y-129499265D01*
X142433272Y-129404027D01*
X142433272Y-129356408D01*
X142385653Y-129261170D01*
X142290415Y-129213551D01*
X142147558Y-129213551D01*
X142052320Y-129165932D01*
X142004700Y-129070694D01*
X142004700Y-129023075D01*
X142052320Y-128927837D01*
X142147558Y-128880218D01*
X142290415Y-128880218D01*
X142385653Y-128927837D01*
X143576129Y-129499265D02*
X143718986Y-129546884D01*
X143957081Y-129546884D01*
X144052320Y-129499265D01*
X144099939Y-129451646D01*
X144147558Y-129356408D01*
X144147558Y-129261170D01*
X144099939Y-129165932D01*
X144052320Y-129118313D01*
X143957081Y-129070694D01*
X143766605Y-129023075D01*
X143671367Y-128975456D01*
X143623748Y-128927837D01*
X143576129Y-128832599D01*
X143576129Y-128737361D01*
X143623748Y-128642123D01*
X143671367Y-128594504D01*
X143766605Y-128546884D01*
X144004700Y-128546884D01*
X144147558Y-128594504D01*
X144718986Y-129546884D02*
X144623748Y-129499265D01*
X144576129Y-129451646D01*
X144528510Y-129356408D01*
X144528510Y-129070694D01*
X144576129Y-128975456D01*
X144623748Y-128927837D01*
X144718986Y-128880218D01*
X144861843Y-128880218D01*
X144957081Y-128927837D01*
X145004700Y-128975456D01*
X145052320Y-129070694D01*
X145052320Y-129356408D01*
X145004700Y-129451646D01*
X144957081Y-129499265D01*
X144861843Y-129546884D01*
X144718986Y-129546884D01*
X145338034Y-128880218D02*
X145718986Y-128880218D01*
X145480891Y-129546884D02*
X145480891Y-128689742D01*
X145528510Y-128594504D01*
X145623748Y-128546884D01*
X145718986Y-128546884D01*
X145909462Y-128880218D02*
X146290415Y-128880218D01*
X146052320Y-128546884D02*
X146052320Y-129404027D01*
X146099939Y-129499265D01*
X146195177Y-129546884D01*
X146290415Y-129546884D01*
X146528510Y-128880218D02*
X146718986Y-129546884D01*
X146909462Y-129070694D01*
X147099939Y-129546884D01*
X147290415Y-128880218D01*
X148099939Y-129546884D02*
X148099939Y-129023075D01*
X148052320Y-128927837D01*
X147957081Y-128880218D01*
X147766605Y-128880218D01*
X147671367Y-128927837D01*
X148099939Y-129499265D02*
X148004700Y-129546884D01*
X147766605Y-129546884D01*
X147671367Y-129499265D01*
X147623748Y-129404027D01*
X147623748Y-129308789D01*
X147671367Y-129213551D01*
X147766605Y-129165932D01*
X148004700Y-129165932D01*
X148099939Y-129118313D01*
X148576129Y-129546884D02*
X148576129Y-128880218D01*
X148576129Y-129070694D02*
X148623748Y-128975456D01*
X148671367Y-128927837D01*
X148766605Y-128880218D01*
X148861843Y-128880218D01*
X149576129Y-129499265D02*
X149480891Y-129546884D01*
X149290415Y-129546884D01*
X149195177Y-129499265D01*
X149147558Y-129404027D01*
X149147558Y-129023075D01*
X149195177Y-128927837D01*
X149290415Y-128880218D01*
X149480891Y-128880218D01*
X149576129Y-128927837D01*
X149623748Y-129023075D01*
X149623748Y-129118313D01*
X149147558Y-129213551D01*
X151290415Y-129546884D02*
X150814224Y-129546884D01*
X150814224Y-128546884D01*
X151480891Y-128880218D02*
X151861843Y-128880218D01*
X151623748Y-128546884D02*
X151623748Y-129404027D01*
X151671367Y-129499265D01*
X151766605Y-129546884D01*
X151861843Y-129546884D01*
X152623748Y-129546884D02*
X152623748Y-128546884D01*
X152623748Y-129499265D02*
X152528510Y-129546884D01*
X152338034Y-129546884D01*
X152242796Y-129499265D01*
X152195177Y-129451646D01*
X152147558Y-129356408D01*
X152147558Y-129070694D01*
X152195177Y-128975456D01*
X152242796Y-128927837D01*
X152338034Y-128880218D01*
X152528510Y-128880218D01*
X152623748Y-128927837D01*
X105793809Y-121509285D02*
X105698571Y-121604523D01*
X105412857Y-121699761D01*
X105222380Y-121699761D01*
X104936666Y-121604523D01*
X104746190Y-121414047D01*
X104650952Y-121223571D01*
X104555714Y-120842619D01*
X104555714Y-120556904D01*
X104650952Y-120175952D01*
X104746190Y-119985476D01*
X104936666Y-119795000D01*
X105222380Y-119699761D01*
X105412857Y-119699761D01*
X105698571Y-119795000D01*
X105793809Y-119890238D01*
X106936666Y-121699761D02*
X106746190Y-121604523D01*
X106650952Y-121509285D01*
X106555714Y-121318809D01*
X106555714Y-120747380D01*
X106650952Y-120556904D01*
X106746190Y-120461666D01*
X106936666Y-120366428D01*
X107222380Y-120366428D01*
X107412857Y-120461666D01*
X107508095Y-120556904D01*
X107603333Y-120747380D01*
X107603333Y-121318809D01*
X107508095Y-121509285D01*
X107412857Y-121604523D01*
X107222380Y-121699761D01*
X106936666Y-121699761D01*
X108460476Y-121699761D02*
X108460476Y-120366428D01*
X108460476Y-120556904D02*
X108555714Y-120461666D01*
X108746190Y-120366428D01*
X109031904Y-120366428D01*
X109222380Y-120461666D01*
X109317619Y-120652142D01*
X109317619Y-121699761D01*
X109317619Y-120652142D02*
X109412857Y-120461666D01*
X109603333Y-120366428D01*
X109889047Y-120366428D01*
X110079523Y-120461666D01*
X110174761Y-120652142D01*
X110174761Y-121699761D01*
X111127142Y-120366428D02*
X111127142Y-122366428D01*
X111127142Y-120461666D02*
X111317619Y-120366428D01*
X111698571Y-120366428D01*
X111889047Y-120461666D01*
X111984285Y-120556904D01*
X112079523Y-120747380D01*
X112079523Y-121318809D01*
X111984285Y-121509285D01*
X111889047Y-121604523D01*
X111698571Y-121699761D01*
X111317619Y-121699761D01*
X111127142Y-121604523D01*
X114174761Y-119699761D02*
X114841428Y-121699761D01*
X115508095Y-119699761D01*
X116174761Y-121699761D02*
X116174761Y-120366428D01*
X116174761Y-119699761D02*
X116079523Y-119795000D01*
X116174761Y-119890238D01*
X116270000Y-119795000D01*
X116174761Y-119699761D01*
X116174761Y-119890238D01*
X117984285Y-121699761D02*
X117984285Y-119699761D01*
X117984285Y-121604523D02*
X117793809Y-121699761D01*
X117412857Y-121699761D01*
X117222380Y-121604523D01*
X117127142Y-121509285D01*
X117031904Y-121318809D01*
X117031904Y-120747380D01*
X117127142Y-120556904D01*
X117222380Y-120461666D01*
X117412857Y-120366428D01*
X117793809Y-120366428D01*
X117984285Y-120461666D01*
X119698571Y-121604523D02*
X119508095Y-121699761D01*
X119127142Y-121699761D01*
X118936666Y-121604523D01*
X118841428Y-121414047D01*
X118841428Y-120652142D01*
X118936666Y-120461666D01*
X119127142Y-120366428D01*
X119508095Y-120366428D01*
X119698571Y-120461666D01*
X119793809Y-120652142D01*
X119793809Y-120842619D01*
X118841428Y-121033095D01*
X120936666Y-121699761D02*
X120746190Y-121604523D01*
X120650952Y-121509285D01*
X120555714Y-121318809D01*
X120555714Y-120747380D01*
X120650952Y-120556904D01*
X120746190Y-120461666D01*
X120936666Y-120366428D01*
X121222380Y-120366428D01*
X121412857Y-120461666D01*
X121508095Y-120556904D01*
X121603333Y-120747380D01*
X121603333Y-121318809D01*
X121508095Y-121509285D01*
X121412857Y-121604523D01*
X121222380Y-121699761D01*
X120936666Y-121699761D01*
X125127142Y-121699761D02*
X124460476Y-120747380D01*
X123984285Y-121699761D02*
X123984285Y-119699761D01*
X124746190Y-119699761D01*
X124936666Y-119795000D01*
X125031904Y-119890238D01*
X125127142Y-120080714D01*
X125127142Y-120366428D01*
X125031904Y-120556904D01*
X124936666Y-120652142D01*
X124746190Y-120747380D01*
X123984285Y-120747380D01*
X126746190Y-121604523D02*
X126555714Y-121699761D01*
X126174761Y-121699761D01*
X125984285Y-121604523D01*
X125889047Y-121414047D01*
X125889047Y-120652142D01*
X125984285Y-120461666D01*
X126174761Y-120366428D01*
X126555714Y-120366428D01*
X126746190Y-120461666D01*
X126841428Y-120652142D01*
X126841428Y-120842619D01*
X125889047Y-121033095D01*
X127698571Y-120366428D02*
X127698571Y-122366428D01*
X127698571Y-120461666D02*
X127889047Y-120366428D01*
X128270000Y-120366428D01*
X128460476Y-120461666D01*
X128555714Y-120556904D01*
X128650952Y-120747380D01*
X128650952Y-121318809D01*
X128555714Y-121509285D01*
X128460476Y-121604523D01*
X128270000Y-121699761D01*
X127889047Y-121699761D01*
X127698571Y-121604523D01*
X129793809Y-121699761D02*
X129603333Y-121604523D01*
X129508095Y-121414047D01*
X129508095Y-119699761D01*
X131412857Y-121699761D02*
X131412857Y-120652142D01*
X131317619Y-120461666D01*
X131127142Y-120366428D01*
X130746190Y-120366428D01*
X130555714Y-120461666D01*
X131412857Y-121604523D02*
X131222380Y-121699761D01*
X130746190Y-121699761D01*
X130555714Y-121604523D01*
X130460476Y-121414047D01*
X130460476Y-121223571D01*
X130555714Y-121033095D01*
X130746190Y-120937857D01*
X131222380Y-120937857D01*
X131412857Y-120842619D01*
X133222380Y-121604523D02*
X133031904Y-121699761D01*
X132650952Y-121699761D01*
X132460476Y-121604523D01*
X132365238Y-121509285D01*
X132270000Y-121318809D01*
X132270000Y-120747380D01*
X132365238Y-120556904D01*
X132460476Y-120461666D01*
X132650952Y-120366428D01*
X133031904Y-120366428D01*
X133222380Y-120461666D01*
X134841428Y-121604523D02*
X134650952Y-121699761D01*
X134270000Y-121699761D01*
X134079523Y-121604523D01*
X133984285Y-121414047D01*
X133984285Y-120652142D01*
X134079523Y-120461666D01*
X134270000Y-120366428D01*
X134650952Y-120366428D01*
X134841428Y-120461666D01*
X134936666Y-120652142D01*
X134936666Y-120842619D01*
X133984285Y-121033095D01*
X135793809Y-121699761D02*
X135793809Y-120366428D01*
X135793809Y-120556904D02*
X135889047Y-120461666D01*
X136079523Y-120366428D01*
X136365238Y-120366428D01*
X136555714Y-120461666D01*
X136650952Y-120652142D01*
X136650952Y-121699761D01*
X136650952Y-120652142D02*
X136746190Y-120461666D01*
X136936666Y-120366428D01*
X137222380Y-120366428D01*
X137412857Y-120461666D01*
X137508095Y-120652142D01*
X137508095Y-121699761D01*
X139222380Y-121604523D02*
X139031904Y-121699761D01*
X138650952Y-121699761D01*
X138460476Y-121604523D01*
X138365238Y-121414047D01*
X138365238Y-120652142D01*
X138460476Y-120461666D01*
X138650952Y-120366428D01*
X139031904Y-120366428D01*
X139222380Y-120461666D01*
X139317619Y-120652142D01*
X139317619Y-120842619D01*
X138365238Y-121033095D01*
X140174761Y-120366428D02*
X140174761Y-121699761D01*
X140174761Y-120556904D02*
X140270000Y-120461666D01*
X140460476Y-120366428D01*
X140746190Y-120366428D01*
X140936666Y-120461666D01*
X141031904Y-120652142D01*
X141031904Y-121699761D01*
X141698571Y-120366428D02*
X142460476Y-120366428D01*
X141984285Y-119699761D02*
X141984285Y-121414047D01*
X142079523Y-121604523D01*
X142270000Y-121699761D01*
X142460476Y-121699761D01*
X144460476Y-120366428D02*
X144936666Y-121699761D01*
X145412857Y-120366428D01*
X147222380Y-121699761D02*
X146079523Y-121699761D01*
X146650952Y-121699761D02*
X146650952Y-119699761D01*
X146460476Y-119985476D01*
X146270000Y-120175952D01*
X146079523Y-120271190D01*
X148079523Y-121509285D02*
X148174761Y-121604523D01*
X148079523Y-121699761D01*
X147984285Y-121604523D01*
X148079523Y-121509285D01*
X148079523Y-121699761D01*
X149412857Y-119699761D02*
X149603333Y-119699761D01*
X149793809Y-119795000D01*
X149889047Y-119890238D01*
X149984285Y-120080714D01*
X150079523Y-120461666D01*
X150079523Y-120937857D01*
X149984285Y-121318809D01*
X149889047Y-121509285D01*
X149793809Y-121604523D01*
X149603333Y-121699761D01*
X149412857Y-121699761D01*
X149222380Y-121604523D01*
X149127142Y-121509285D01*
X149031904Y-121318809D01*
X148936666Y-120937857D01*
X148936666Y-120461666D01*
X149031904Y-120080714D01*
X149127142Y-119890238D01*
X149222380Y-119795000D01*
X149412857Y-119699761D01*
X150841428Y-119890238D02*
X150936666Y-119795000D01*
X151127142Y-119699761D01*
X151603333Y-119699761D01*
X151793809Y-119795000D01*
X151889047Y-119890238D01*
X151984285Y-120080714D01*
X151984285Y-120271190D01*
X151889047Y-120556904D01*
X150746190Y-121699761D01*
X151984285Y-121699761D01*
D12*
X93213908Y-126290927D02*
X93213908Y-123290927D01*
X93928194Y-123290927D01*
X94356765Y-123433785D01*
X94642479Y-123719499D01*
X94785336Y-124005213D01*
X94928194Y-124576642D01*
X94928194Y-125005213D01*
X94785336Y-125576642D01*
X94642479Y-125862356D01*
X94356765Y-126148070D01*
X93928194Y-126290927D01*
X93213908Y-126290927D01*
X97499622Y-126290927D02*
X97499622Y-124719499D01*
X97356765Y-124433785D01*
X97071051Y-124290927D01*
X96499622Y-124290927D01*
X96213908Y-124433785D01*
X97499622Y-126148070D02*
X97213908Y-126290927D01*
X96499622Y-126290927D01*
X96213908Y-126148070D01*
X96071051Y-125862356D01*
X96071051Y-125576642D01*
X96213908Y-125290927D01*
X96499622Y-125148070D01*
X97213908Y-125148070D01*
X97499622Y-125005213D01*
X98642479Y-124290927D02*
X99356765Y-126290927D01*
X100071051Y-124290927D01*
X102356765Y-126148070D02*
X102071051Y-126290927D01*
X101499622Y-126290927D01*
X101213908Y-126148070D01*
X101071051Y-125862356D01*
X101071051Y-124719499D01*
X101213908Y-124433785D01*
X101499622Y-124290927D01*
X102071051Y-124290927D01*
X102356765Y-124433785D01*
X102499622Y-124719499D01*
X102499622Y-125005213D01*
X101071051Y-125290927D01*
X103928194Y-123290927D02*
X103642479Y-123862356D01*
X105071051Y-126148070D02*
X105356765Y-126290927D01*
X105928194Y-126290927D01*
X106213908Y-126148070D01*
X106356765Y-125862356D01*
X106356765Y-125719499D01*
X106213908Y-125433785D01*
X105928194Y-125290927D01*
X105499622Y-125290927D01*
X105213908Y-125148070D01*
X105071051Y-124862356D01*
X105071051Y-124719499D01*
X105213908Y-124433785D01*
X105499622Y-124290927D01*
X105928194Y-124290927D01*
X106213908Y-124433785D01*
X111499622Y-123433785D02*
X111213908Y-123290927D01*
X110785336Y-123290927D01*
X110356765Y-123433785D01*
X110071051Y-123719499D01*
X109928194Y-124005213D01*
X109785336Y-124576642D01*
X109785336Y-125005213D01*
X109928194Y-125576642D01*
X110071051Y-125862356D01*
X110356765Y-126148070D01*
X110785336Y-126290927D01*
X111071051Y-126290927D01*
X111499622Y-126148070D01*
X111642479Y-126005213D01*
X111642479Y-125005213D01*
X111071051Y-125005213D01*
X114213908Y-126290927D02*
X114213908Y-124719499D01*
X114071051Y-124433785D01*
X113785336Y-124290927D01*
X113213908Y-124290927D01*
X112928194Y-124433785D01*
X114213908Y-126148070D02*
X113928194Y-126290927D01*
X113213908Y-126290927D01*
X112928194Y-126148070D01*
X112785336Y-125862356D01*
X112785336Y-125576642D01*
X112928194Y-125290927D01*
X113213908Y-125148070D01*
X113928194Y-125148070D01*
X114213908Y-125005213D01*
X115642479Y-126290927D02*
X115642479Y-124290927D01*
X115642479Y-124862356D02*
X115785336Y-124576642D01*
X115928194Y-124433785D01*
X116213908Y-124290927D01*
X116499622Y-124290927D01*
X118785336Y-126290927D02*
X118785336Y-124719499D01*
X118642479Y-124433785D01*
X118356765Y-124290927D01*
X117785336Y-124290927D01*
X117499622Y-124433785D01*
X118785336Y-126148070D02*
X118499622Y-126290927D01*
X117785336Y-126290927D01*
X117499622Y-126148070D01*
X117356765Y-125862356D01*
X117356765Y-125576642D01*
X117499622Y-125290927D01*
X117785336Y-125148070D01*
X118499622Y-125148070D01*
X118785336Y-125005213D01*
X121499622Y-124290927D02*
X121499622Y-126719499D01*
X121356765Y-127005213D01*
X121213908Y-127148070D01*
X120928194Y-127290927D01*
X120499622Y-127290927D01*
X120213908Y-127148070D01*
X121499622Y-126148070D02*
X121213908Y-126290927D01*
X120642479Y-126290927D01*
X120356765Y-126148070D01*
X120213908Y-126005213D01*
X120071051Y-125719499D01*
X120071051Y-124862356D01*
X120213908Y-124576642D01*
X120356765Y-124433785D01*
X120642479Y-124290927D01*
X121213908Y-124290927D01*
X121499622Y-124433785D01*
X124071051Y-126148070D02*
X123785336Y-126290927D01*
X123213908Y-126290927D01*
X122928194Y-126148070D01*
X122785336Y-125862356D01*
X122785336Y-124719499D01*
X122928194Y-124433785D01*
X123213908Y-124290927D01*
X123785336Y-124290927D01*
X124071051Y-124433785D01*
X124213908Y-124719499D01*
X124213908Y-125005213D01*
X122785336Y-125290927D01*
X128213908Y-126290927D02*
X127928194Y-126148070D01*
X127785336Y-126005213D01*
X127642479Y-125719499D01*
X127642479Y-124862356D01*
X127785336Y-124576642D01*
X127928194Y-124433785D01*
X128213908Y-124290927D01*
X128642479Y-124290927D01*
X128928194Y-124433785D01*
X129071051Y-124576642D01*
X129213908Y-124862356D01*
X129213908Y-125719499D01*
X129071051Y-126005213D01*
X128928194Y-126148070D01*
X128642479Y-126290927D01*
X128213908Y-126290927D01*
X130499622Y-124290927D02*
X130499622Y-126290927D01*
X130499622Y-124576642D02*
X130642479Y-124433785D01*
X130928194Y-124290927D01*
X131356765Y-124290927D01*
X131642479Y-124433785D01*
X131785336Y-124719499D01*
X131785336Y-126290927D01*
X136071051Y-124862356D02*
X136071051Y-126290927D01*
X135071051Y-123290927D02*
X136071051Y-124862356D01*
X137071051Y-123290927D01*
X138499622Y-126290927D02*
X138213908Y-126148070D01*
X138071051Y-126005213D01*
X137928194Y-125719499D01*
X137928194Y-124862356D01*
X138071051Y-124576642D01*
X138213908Y-124433785D01*
X138499622Y-124290927D01*
X138928194Y-124290927D01*
X139213908Y-124433785D01*
X139356765Y-124576642D01*
X139499622Y-124862356D01*
X139499622Y-125719499D01*
X139356765Y-126005213D01*
X139213908Y-126148070D01*
X138928194Y-126290927D01*
X138499622Y-126290927D01*
X142071051Y-124290927D02*
X142071051Y-126290927D01*
X140785337Y-124290927D02*
X140785337Y-125862356D01*
X140928194Y-126148070D01*
X141213908Y-126290927D01*
X141642479Y-126290927D01*
X141928194Y-126148070D01*
X142071051Y-126005213D01*
X143071051Y-123290927D02*
X144785337Y-123290927D01*
X143928194Y-126290927D02*
X143928194Y-123290927D01*
X147071051Y-124290927D02*
X147071051Y-126290927D01*
X145785337Y-124290927D02*
X145785337Y-125862356D01*
X145928194Y-126148070D01*
X146213908Y-126290927D01*
X146642479Y-126290927D01*
X146928194Y-126148070D01*
X147071051Y-126005213D01*
X148499622Y-126290927D02*
X148499622Y-123290927D01*
X148499622Y-124433785D02*
X148785337Y-124290927D01*
X149356765Y-124290927D01*
X149642479Y-124433785D01*
X149785337Y-124576642D01*
X149928194Y-124862356D01*
X149928194Y-125719499D01*
X149785337Y-126005213D01*
X149642479Y-126148070D01*
X149356765Y-126290927D01*
X148785337Y-126290927D01*
X148499622Y-126148070D01*
X152356765Y-126148070D02*
X152071051Y-126290927D01*
X151499622Y-126290927D01*
X151213908Y-126148070D01*
X151071051Y-125862356D01*
X151071051Y-124719499D01*
X151213908Y-124433785D01*
X151499622Y-124290927D01*
X152071051Y-124290927D01*
X152356765Y-124433785D01*
X152499622Y-124719499D01*
X152499622Y-125005213D01*
X151071051Y-125290927D01*
X65892976Y-40171071D02*
X65702499Y-40361547D01*
X65131071Y-40552023D01*
X64750119Y-40552023D01*
X64178690Y-40361547D01*
X63797738Y-39980595D01*
X63607261Y-39599642D01*
X63416785Y-38837738D01*
X63416785Y-38266309D01*
X63607261Y-37504404D01*
X63797738Y-37123452D01*
X64178690Y-36742500D01*
X64750119Y-36552023D01*
X65131071Y-36552023D01*
X65702499Y-36742500D01*
X65892976Y-36932976D01*
X68369166Y-36552023D02*
X69131071Y-36552023D01*
X69512023Y-36742500D01*
X69892976Y-37123452D01*
X70083452Y-37885357D01*
X70083452Y-39218690D01*
X69892976Y-39980595D01*
X69512023Y-40361547D01*
X69131071Y-40552023D01*
X68369166Y-40552023D01*
X67988214Y-40361547D01*
X67607261Y-39980595D01*
X67416785Y-39218690D01*
X67416785Y-37885357D01*
X67607261Y-37123452D01*
X67988214Y-36742500D01*
X68369166Y-36552023D01*
X73702500Y-40552023D02*
X71797738Y-40552023D01*
X71797738Y-36552023D01*
X75035833Y-38456785D02*
X76369166Y-38456785D01*
X76940595Y-40552023D02*
X75035833Y-40552023D01*
X75035833Y-36552023D01*
X76940595Y-36552023D01*
X80940595Y-40171071D02*
X80750119Y-40361547D01*
X80178690Y-40552023D01*
X79797738Y-40552023D01*
X79226309Y-40361547D01*
X78845357Y-39980595D01*
X78654880Y-39599642D01*
X78464404Y-38837738D01*
X78464404Y-38266309D01*
X78654880Y-37504404D01*
X78845357Y-37123452D01*
X79226309Y-36742500D01*
X79797738Y-36552023D01*
X80178690Y-36552023D01*
X80750119Y-36742500D01*
X80940595Y-36932976D01*
X83416785Y-36552023D02*
X84178690Y-36552023D01*
X84559642Y-36742500D01*
X84940595Y-37123452D01*
X85131071Y-37885357D01*
X85131071Y-39218690D01*
X84940595Y-39980595D01*
X84559642Y-40361547D01*
X84178690Y-40552023D01*
X83416785Y-40552023D01*
X83035833Y-40361547D01*
X82654880Y-39980595D01*
X82464404Y-39218690D01*
X82464404Y-37885357D01*
X82654880Y-37123452D01*
X83035833Y-36742500D01*
X83416785Y-36552023D01*
X89321547Y-36552023D02*
X91607261Y-36552023D01*
X90464404Y-40552023D02*
X90464404Y-36552023D01*
X92940595Y-38456785D02*
X94273928Y-38456785D01*
X94845357Y-40552023D02*
X92940595Y-40552023D01*
X92940595Y-36552023D01*
X94845357Y-36552023D01*
X98464404Y-40552023D02*
X96559642Y-40552023D01*
X96559642Y-36552023D01*
X99607261Y-40361547D02*
X100178690Y-40552023D01*
X101131071Y-40552023D01*
X101512023Y-40361547D01*
X101702500Y-40171071D01*
X101892976Y-39790119D01*
X101892976Y-39409166D01*
X101702500Y-39028214D01*
X101512023Y-38837738D01*
X101131071Y-38647261D01*
X100369166Y-38456785D01*
X99988214Y-38266309D01*
X99797738Y-38075833D01*
X99607261Y-37694880D01*
X99607261Y-37313928D01*
X99797738Y-36932976D01*
X99988214Y-36742500D01*
X100369166Y-36552023D01*
X101321547Y-36552023D01*
X101892976Y-36742500D01*
X103035833Y-36552023D02*
X105321547Y-36552023D01*
X104178690Y-40552023D02*
X104178690Y-36552023D01*
X106464404Y-39409166D02*
X108369166Y-39409166D01*
X106083452Y-40552023D02*
X107416785Y-36552023D01*
X108750119Y-40552023D01*
X112369166Y-40552023D02*
X111035833Y-38647261D01*
X110083452Y-40552023D02*
X110083452Y-36552023D01*
X111607261Y-36552023D01*
X111988214Y-36742500D01*
X112178690Y-36932976D01*
X112369166Y-37313928D01*
X112369166Y-37885357D01*
X112178690Y-38266309D01*
X111988214Y-38456785D01*
X111607261Y-38647261D01*
X110083452Y-38647261D01*
X118273928Y-42075833D02*
X118083452Y-41885357D01*
X117702499Y-41313928D01*
X117512023Y-40932976D01*
X117321547Y-40361547D01*
X117131071Y-39409166D01*
X117131071Y-38647261D01*
X117321547Y-37694880D01*
X117512023Y-37123452D01*
X117702499Y-36742500D01*
X118083452Y-36171071D01*
X118273928Y-35980595D01*
X121892976Y-40552023D02*
X119607261Y-40552023D01*
X120750119Y-40552023D02*
X120750119Y-36552023D01*
X120369166Y-37123452D01*
X119988214Y-37504404D01*
X119607261Y-37694880D01*
X123797738Y-40552023D02*
X124559642Y-40552023D01*
X124940595Y-40361547D01*
X125131071Y-40171071D01*
X125512023Y-39599642D01*
X125702499Y-38837738D01*
X125702499Y-37313928D01*
X125512023Y-36932976D01*
X125321547Y-36742500D01*
X124940595Y-36552023D01*
X124178690Y-36552023D01*
X123797738Y-36742500D01*
X123607261Y-36932976D01*
X123416785Y-37313928D01*
X123416785Y-38266309D01*
X123607261Y-38647261D01*
X123797738Y-38837738D01*
X124178690Y-39028214D01*
X124940595Y-39028214D01*
X125321547Y-38837738D01*
X125512023Y-38647261D01*
X125702499Y-38266309D01*
X127035833Y-36552023D02*
X129702499Y-36552023D01*
X127988214Y-40552023D01*
X130845357Y-36552023D02*
X133512023Y-36552023D01*
X131797738Y-40552023D01*
X134654880Y-42075833D02*
X134845357Y-41885357D01*
X135226309Y-41313928D01*
X135416785Y-40932976D01*
X135607261Y-40361547D01*
X135797738Y-39409166D01*
X135797738Y-38647261D01*
X135607261Y-37694880D01*
X135416785Y-37123452D01*
X135226309Y-36742500D01*
X134845357Y-36171071D01*
X134654880Y-35980595D01*
D11*
%TO.C,J5*%
X142537380Y-73993333D02*
X143251666Y-73993333D01*
X143394523Y-74040952D01*
X143489761Y-74136190D01*
X143537380Y-74279047D01*
X143537380Y-74374285D01*
X142537380Y-73040952D02*
X142537380Y-73517142D01*
X143013571Y-73564761D01*
X142965952Y-73517142D01*
X142918333Y-73421904D01*
X142918333Y-73183809D01*
X142965952Y-73088571D01*
X143013571Y-73040952D01*
X143108809Y-72993333D01*
X143346904Y-72993333D01*
X143442142Y-73040952D01*
X143489761Y-73088571D01*
X143537380Y-73183809D01*
X143537380Y-73421904D01*
X143489761Y-73517142D01*
X143442142Y-73564761D01*
%TO.C,C3*%
X114967142Y-105926666D02*
X115014761Y-105974285D01*
X115062380Y-106117142D01*
X115062380Y-106212380D01*
X115014761Y-106355238D01*
X114919523Y-106450476D01*
X114824285Y-106498095D01*
X114633809Y-106545714D01*
X114490952Y-106545714D01*
X114300476Y-106498095D01*
X114205238Y-106450476D01*
X114110000Y-106355238D01*
X114062380Y-106212380D01*
X114062380Y-106117142D01*
X114110000Y-105974285D01*
X114157619Y-105926666D01*
X114062380Y-105593333D02*
X114062380Y-104974285D01*
X114443333Y-105307619D01*
X114443333Y-105164761D01*
X114490952Y-105069523D01*
X114538571Y-105021904D01*
X114633809Y-104974285D01*
X114871904Y-104974285D01*
X114967142Y-105021904D01*
X115014761Y-105069523D01*
X115062380Y-105164761D01*
X115062380Y-105450476D01*
X115014761Y-105545714D01*
X114967142Y-105593333D01*
%TO.C,C4*%
X107347142Y-105926666D02*
X107394761Y-105974285D01*
X107442380Y-106117142D01*
X107442380Y-106212380D01*
X107394761Y-106355238D01*
X107299523Y-106450476D01*
X107204285Y-106498095D01*
X107013809Y-106545714D01*
X106870952Y-106545714D01*
X106680476Y-106498095D01*
X106585238Y-106450476D01*
X106490000Y-106355238D01*
X106442380Y-106212380D01*
X106442380Y-106117142D01*
X106490000Y-105974285D01*
X106537619Y-105926666D01*
X106775714Y-105069523D02*
X107442380Y-105069523D01*
X106394761Y-105307619D02*
X107109047Y-105545714D01*
X107109047Y-104926666D01*
%TO.C,R7*%
X84272380Y-104306666D02*
X83796190Y-104640000D01*
X84272380Y-104878095D02*
X83272380Y-104878095D01*
X83272380Y-104497142D01*
X83320000Y-104401904D01*
X83367619Y-104354285D01*
X83462857Y-104306666D01*
X83605714Y-104306666D01*
X83700952Y-104354285D01*
X83748571Y-104401904D01*
X83796190Y-104497142D01*
X83796190Y-104878095D01*
X83272380Y-103973333D02*
X83272380Y-103306666D01*
X84272380Y-103735238D01*
%TO.C,Y1*%
X50621309Y-98741190D02*
X50621309Y-99217380D01*
X50287976Y-98217380D02*
X50621309Y-98741190D01*
X50954642Y-98217380D01*
X51811785Y-99217380D02*
X51240357Y-99217380D01*
X51526071Y-99217380D02*
X51526071Y-98217380D01*
X51430833Y-98360238D01*
X51335595Y-98455476D01*
X51240357Y-98503095D01*
%TO.C,R2*%
X61412380Y-104306666D02*
X60936190Y-104640000D01*
X61412380Y-104878095D02*
X60412380Y-104878095D01*
X60412380Y-104497142D01*
X60460000Y-104401904D01*
X60507619Y-104354285D01*
X60602857Y-104306666D01*
X60745714Y-104306666D01*
X60840952Y-104354285D01*
X60888571Y-104401904D01*
X60936190Y-104497142D01*
X60936190Y-104878095D01*
X60507619Y-103925714D02*
X60460000Y-103878095D01*
X60412380Y-103782857D01*
X60412380Y-103544761D01*
X60460000Y-103449523D01*
X60507619Y-103401904D01*
X60602857Y-103354285D01*
X60698095Y-103354285D01*
X60840952Y-103401904D01*
X61412380Y-103973333D01*
X61412380Y-103354285D01*
%TO.C,R4*%
X76652380Y-104306666D02*
X76176190Y-104640000D01*
X76652380Y-104878095D02*
X75652380Y-104878095D01*
X75652380Y-104497142D01*
X75700000Y-104401904D01*
X75747619Y-104354285D01*
X75842857Y-104306666D01*
X75985714Y-104306666D01*
X76080952Y-104354285D01*
X76128571Y-104401904D01*
X76176190Y-104497142D01*
X76176190Y-104878095D01*
X75985714Y-103449523D02*
X76652380Y-103449523D01*
X75604761Y-103687619D02*
X76319047Y-103925714D01*
X76319047Y-103306666D01*
%TO.C,R5*%
X124293333Y-68852380D02*
X123960000Y-68376190D01*
X123721904Y-68852380D02*
X123721904Y-67852380D01*
X124102857Y-67852380D01*
X124198095Y-67900000D01*
X124245714Y-67947619D01*
X124293333Y-68042857D01*
X124293333Y-68185714D01*
X124245714Y-68280952D01*
X124198095Y-68328571D01*
X124102857Y-68376190D01*
X123721904Y-68376190D01*
X125198095Y-67852380D02*
X124721904Y-67852380D01*
X124674285Y-68328571D01*
X124721904Y-68280952D01*
X124817142Y-68233333D01*
X125055238Y-68233333D01*
X125150476Y-68280952D01*
X125198095Y-68328571D01*
X125245714Y-68423809D01*
X125245714Y-68661904D01*
X125198095Y-68757142D01*
X125150476Y-68804761D01*
X125055238Y-68852380D01*
X124817142Y-68852380D01*
X124721904Y-68804761D01*
X124674285Y-68757142D01*
%TO.C,R12*%
X51252380Y-65412857D02*
X50776190Y-65746190D01*
X51252380Y-65984285D02*
X50252380Y-65984285D01*
X50252380Y-65603333D01*
X50300000Y-65508095D01*
X50347619Y-65460476D01*
X50442857Y-65412857D01*
X50585714Y-65412857D01*
X50680952Y-65460476D01*
X50728571Y-65508095D01*
X50776190Y-65603333D01*
X50776190Y-65984285D01*
X51252380Y-64460476D02*
X51252380Y-65031904D01*
X51252380Y-64746190D02*
X50252380Y-64746190D01*
X50395238Y-64841428D01*
X50490476Y-64936666D01*
X50538095Y-65031904D01*
X50347619Y-64079523D02*
X50300000Y-64031904D01*
X50252380Y-63936666D01*
X50252380Y-63698571D01*
X50300000Y-63603333D01*
X50347619Y-63555714D01*
X50442857Y-63508095D01*
X50538095Y-63508095D01*
X50680952Y-63555714D01*
X51252380Y-64127142D01*
X51252380Y-63508095D01*
%TO.C,U1*%
X88133095Y-56797380D02*
X88133095Y-57606904D01*
X88180714Y-57702142D01*
X88228333Y-57749761D01*
X88323571Y-57797380D01*
X88514047Y-57797380D01*
X88609285Y-57749761D01*
X88656904Y-57702142D01*
X88704523Y-57606904D01*
X88704523Y-56797380D01*
X89704523Y-57797380D02*
X89133095Y-57797380D01*
X89418809Y-57797380D02*
X89418809Y-56797380D01*
X89323571Y-56940238D01*
X89228333Y-57035476D01*
X89133095Y-57083095D01*
%TO.C,U2*%
X98512380Y-71881904D02*
X99321904Y-71881904D01*
X99417142Y-71834285D01*
X99464761Y-71786666D01*
X99512380Y-71691428D01*
X99512380Y-71500952D01*
X99464761Y-71405714D01*
X99417142Y-71358095D01*
X99321904Y-71310476D01*
X98512380Y-71310476D01*
X98607619Y-70881904D02*
X98560000Y-70834285D01*
X98512380Y-70739047D01*
X98512380Y-70500952D01*
X98560000Y-70405714D01*
X98607619Y-70358095D01*
X98702857Y-70310476D01*
X98798095Y-70310476D01*
X98940952Y-70358095D01*
X99512380Y-70929523D01*
X99512380Y-70310476D01*
%TO.C,R10*%
X123817142Y-84272380D02*
X123483809Y-83796190D01*
X123245714Y-84272380D02*
X123245714Y-83272380D01*
X123626666Y-83272380D01*
X123721904Y-83320000D01*
X123769523Y-83367619D01*
X123817142Y-83462857D01*
X123817142Y-83605714D01*
X123769523Y-83700952D01*
X123721904Y-83748571D01*
X123626666Y-83796190D01*
X123245714Y-83796190D01*
X124769523Y-84272380D02*
X124198095Y-84272380D01*
X124483809Y-84272380D02*
X124483809Y-83272380D01*
X124388571Y-83415238D01*
X124293333Y-83510476D01*
X124198095Y-83558095D01*
X125388571Y-83272380D02*
X125483809Y-83272380D01*
X125579047Y-83320000D01*
X125626666Y-83367619D01*
X125674285Y-83462857D01*
X125721904Y-83653333D01*
X125721904Y-83891428D01*
X125674285Y-84081904D01*
X125626666Y-84177142D01*
X125579047Y-84224761D01*
X125483809Y-84272380D01*
X125388571Y-84272380D01*
X125293333Y-84224761D01*
X125245714Y-84177142D01*
X125198095Y-84081904D01*
X125150476Y-83891428D01*
X125150476Y-83653333D01*
X125198095Y-83462857D01*
X125245714Y-83367619D01*
X125293333Y-83320000D01*
X125388571Y-83272380D01*
%TO.C,R6*%
X124293333Y-53792380D02*
X123960000Y-53316190D01*
X123721904Y-53792380D02*
X123721904Y-52792380D01*
X124102857Y-52792380D01*
X124198095Y-52840000D01*
X124245714Y-52887619D01*
X124293333Y-52982857D01*
X124293333Y-53125714D01*
X124245714Y-53220952D01*
X124198095Y-53268571D01*
X124102857Y-53316190D01*
X123721904Y-53316190D01*
X125150476Y-52792380D02*
X124960000Y-52792380D01*
X124864761Y-52840000D01*
X124817142Y-52887619D01*
X124721904Y-53030476D01*
X124674285Y-53220952D01*
X124674285Y-53601904D01*
X124721904Y-53697142D01*
X124769523Y-53744761D01*
X124864761Y-53792380D01*
X125055238Y-53792380D01*
X125150476Y-53744761D01*
X125198095Y-53697142D01*
X125245714Y-53601904D01*
X125245714Y-53363809D01*
X125198095Y-53268571D01*
X125150476Y-53220952D01*
X125055238Y-53173333D01*
X124864761Y-53173333D01*
X124769523Y-53220952D01*
X124721904Y-53268571D01*
X124674285Y-53363809D01*
%TO.C,J4*%
X136432380Y-89233333D02*
X137146666Y-89233333D01*
X137289523Y-89280952D01*
X137384761Y-89376190D01*
X137432380Y-89519047D01*
X137432380Y-89614285D01*
X136765714Y-88328571D02*
X137432380Y-88328571D01*
X136384761Y-88566666D02*
X137099047Y-88804761D01*
X137099047Y-88185714D01*
%TO.C,U3*%
X124968095Y-93642380D02*
X124968095Y-94451904D01*
X125015714Y-94547142D01*
X125063333Y-94594761D01*
X125158571Y-94642380D01*
X125349047Y-94642380D01*
X125444285Y-94594761D01*
X125491904Y-94547142D01*
X125539523Y-94451904D01*
X125539523Y-93642380D01*
X125920476Y-93642380D02*
X126539523Y-93642380D01*
X126206190Y-94023333D01*
X126349047Y-94023333D01*
X126444285Y-94070952D01*
X126491904Y-94118571D01*
X126539523Y-94213809D01*
X126539523Y-94451904D01*
X126491904Y-94547142D01*
X126444285Y-94594761D01*
X126349047Y-94642380D01*
X126063333Y-94642380D01*
X125968095Y-94594761D01*
X125920476Y-94547142D01*
%TO.C,J3*%
X141621666Y-53777380D02*
X141621666Y-54491666D01*
X141574047Y-54634523D01*
X141478809Y-54729761D01*
X141335952Y-54777380D01*
X141240714Y-54777380D01*
X142002619Y-53777380D02*
X142621666Y-53777380D01*
X142288333Y-54158333D01*
X142431190Y-54158333D01*
X142526428Y-54205952D01*
X142574047Y-54253571D01*
X142621666Y-54348809D01*
X142621666Y-54586904D01*
X142574047Y-54682142D01*
X142526428Y-54729761D01*
X142431190Y-54777380D01*
X142145476Y-54777380D01*
X142050238Y-54729761D01*
X142002619Y-54682142D01*
%TO.C,Q1*%
X113327619Y-62325238D02*
X113280000Y-62420476D01*
X113184761Y-62515714D01*
X113041904Y-62658571D01*
X112994285Y-62753809D01*
X112994285Y-62849047D01*
X113232380Y-62801428D02*
X113184761Y-62896666D01*
X113089523Y-62991904D01*
X112899047Y-63039523D01*
X112565714Y-63039523D01*
X112375238Y-62991904D01*
X112280000Y-62896666D01*
X112232380Y-62801428D01*
X112232380Y-62610952D01*
X112280000Y-62515714D01*
X112375238Y-62420476D01*
X112565714Y-62372857D01*
X112899047Y-62372857D01*
X113089523Y-62420476D01*
X113184761Y-62515714D01*
X113232380Y-62610952D01*
X113232380Y-62801428D01*
X113232380Y-61420476D02*
X113232380Y-61991904D01*
X113232380Y-61706190D02*
X112232380Y-61706190D01*
X112375238Y-61801428D01*
X112470476Y-61896666D01*
X112518095Y-61991904D01*
%TO.C,J2*%
X60702380Y-73993333D02*
X61416666Y-73993333D01*
X61559523Y-74040952D01*
X61654761Y-74136190D01*
X61702380Y-74279047D01*
X61702380Y-74374285D01*
X60797619Y-73564761D02*
X60750000Y-73517142D01*
X60702380Y-73421904D01*
X60702380Y-73183809D01*
X60750000Y-73088571D01*
X60797619Y-73040952D01*
X60892857Y-72993333D01*
X60988095Y-72993333D01*
X61130952Y-73040952D01*
X61702380Y-73612380D01*
X61702380Y-72993333D01*
%TO.C,R11*%
X123817142Y-76652380D02*
X123483809Y-76176190D01*
X123245714Y-76652380D02*
X123245714Y-75652380D01*
X123626666Y-75652380D01*
X123721904Y-75700000D01*
X123769523Y-75747619D01*
X123817142Y-75842857D01*
X123817142Y-75985714D01*
X123769523Y-76080952D01*
X123721904Y-76128571D01*
X123626666Y-76176190D01*
X123245714Y-76176190D01*
X124769523Y-76652380D02*
X124198095Y-76652380D01*
X124483809Y-76652380D02*
X124483809Y-75652380D01*
X124388571Y-75795238D01*
X124293333Y-75890476D01*
X124198095Y-75938095D01*
X125721904Y-76652380D02*
X125150476Y-76652380D01*
X125436190Y-76652380D02*
X125436190Y-75652380D01*
X125340952Y-75795238D01*
X125245714Y-75890476D01*
X125150476Y-75938095D01*
%TO.C,C1*%
X51157142Y-78906666D02*
X51204761Y-78954285D01*
X51252380Y-79097142D01*
X51252380Y-79192380D01*
X51204761Y-79335238D01*
X51109523Y-79430476D01*
X51014285Y-79478095D01*
X50823809Y-79525714D01*
X50680952Y-79525714D01*
X50490476Y-79478095D01*
X50395238Y-79430476D01*
X50300000Y-79335238D01*
X50252380Y-79192380D01*
X50252380Y-79097142D01*
X50300000Y-78954285D01*
X50347619Y-78906666D01*
X51252380Y-77954285D02*
X51252380Y-78525714D01*
X51252380Y-78240000D02*
X50252380Y-78240000D01*
X50395238Y-78335238D01*
X50490476Y-78430476D01*
X50538095Y-78525714D01*
%TO.C,R1*%
X69212380Y-104306666D02*
X68736190Y-104640000D01*
X69212380Y-104878095D02*
X68212380Y-104878095D01*
X68212380Y-104497142D01*
X68260000Y-104401904D01*
X68307619Y-104354285D01*
X68402857Y-104306666D01*
X68545714Y-104306666D01*
X68640952Y-104354285D01*
X68688571Y-104401904D01*
X68736190Y-104497142D01*
X68736190Y-104878095D01*
X69212380Y-103354285D02*
X69212380Y-103925714D01*
X69212380Y-103640000D02*
X68212380Y-103640000D01*
X68355238Y-103735238D01*
X68450476Y-103830476D01*
X68498095Y-103925714D01*
%TO.C,R3*%
X124293333Y-61412380D02*
X123960000Y-60936190D01*
X123721904Y-61412380D02*
X123721904Y-60412380D01*
X124102857Y-60412380D01*
X124198095Y-60460000D01*
X124245714Y-60507619D01*
X124293333Y-60602857D01*
X124293333Y-60745714D01*
X124245714Y-60840952D01*
X124198095Y-60888571D01*
X124102857Y-60936190D01*
X123721904Y-60936190D01*
X124626666Y-60412380D02*
X125245714Y-60412380D01*
X124912380Y-60793333D01*
X125055238Y-60793333D01*
X125150476Y-60840952D01*
X125198095Y-60888571D01*
X125245714Y-60983809D01*
X125245714Y-61221904D01*
X125198095Y-61317142D01*
X125150476Y-61364761D01*
X125055238Y-61412380D01*
X124769523Y-61412380D01*
X124674285Y-61364761D01*
X124626666Y-61317142D01*
%TO.C,R8*%
X99692380Y-104656666D02*
X99216190Y-104990000D01*
X99692380Y-105228095D02*
X98692380Y-105228095D01*
X98692380Y-104847142D01*
X98740000Y-104751904D01*
X98787619Y-104704285D01*
X98882857Y-104656666D01*
X99025714Y-104656666D01*
X99120952Y-104704285D01*
X99168571Y-104751904D01*
X99216190Y-104847142D01*
X99216190Y-105228095D01*
X99120952Y-104085238D02*
X99073333Y-104180476D01*
X99025714Y-104228095D01*
X98930476Y-104275714D01*
X98882857Y-104275714D01*
X98787619Y-104228095D01*
X98740000Y-104180476D01*
X98692380Y-104085238D01*
X98692380Y-103894761D01*
X98740000Y-103799523D01*
X98787619Y-103751904D01*
X98882857Y-103704285D01*
X98930476Y-103704285D01*
X99025714Y-103751904D01*
X99073333Y-103799523D01*
X99120952Y-103894761D01*
X99120952Y-104085238D01*
X99168571Y-104180476D01*
X99216190Y-104228095D01*
X99311428Y-104275714D01*
X99501904Y-104275714D01*
X99597142Y-104228095D01*
X99644761Y-104180476D01*
X99692380Y-104085238D01*
X99692380Y-103894761D01*
X99644761Y-103799523D01*
X99597142Y-103751904D01*
X99501904Y-103704285D01*
X99311428Y-103704285D01*
X99216190Y-103751904D01*
X99168571Y-103799523D01*
X99120952Y-103894761D01*
%TO.C,J1*%
X136852380Y-107013333D02*
X137566666Y-107013333D01*
X137709523Y-107060952D01*
X137804761Y-107156190D01*
X137852380Y-107299047D01*
X137852380Y-107394285D01*
X137852380Y-106013333D02*
X137852380Y-106584761D01*
X137852380Y-106299047D02*
X136852380Y-106299047D01*
X136995238Y-106394285D01*
X137090476Y-106489523D01*
X137138095Y-106584761D01*
%TO.C,C2*%
X51157142Y-91486666D02*
X51204761Y-91534285D01*
X51252380Y-91677142D01*
X51252380Y-91772380D01*
X51204761Y-91915238D01*
X51109523Y-92010476D01*
X51014285Y-92058095D01*
X50823809Y-92105714D01*
X50680952Y-92105714D01*
X50490476Y-92058095D01*
X50395238Y-92010476D01*
X50300000Y-91915238D01*
X50252380Y-91772380D01*
X50252380Y-91677142D01*
X50300000Y-91534285D01*
X50347619Y-91486666D01*
X50347619Y-91105714D02*
X50300000Y-91058095D01*
X50252380Y-90962857D01*
X50252380Y-90724761D01*
X50300000Y-90629523D01*
X50347619Y-90581904D01*
X50442857Y-90534285D01*
X50538095Y-90534285D01*
X50680952Y-90581904D01*
X51252380Y-91153333D01*
X51252380Y-90534285D01*
%TO.C,R9*%
X92072380Y-104306666D02*
X91596190Y-104640000D01*
X92072380Y-104878095D02*
X91072380Y-104878095D01*
X91072380Y-104497142D01*
X91120000Y-104401904D01*
X91167619Y-104354285D01*
X91262857Y-104306666D01*
X91405714Y-104306666D01*
X91500952Y-104354285D01*
X91548571Y-104401904D01*
X91596190Y-104497142D01*
X91596190Y-104878095D01*
X92072380Y-103830476D02*
X92072380Y-103640000D01*
X92024761Y-103544761D01*
X91977142Y-103497142D01*
X91834285Y-103401904D01*
X91643809Y-103354285D01*
X91262857Y-103354285D01*
X91167619Y-103401904D01*
X91120000Y-103449523D01*
X91072380Y-103544761D01*
X91072380Y-103735238D01*
X91120000Y-103830476D01*
X91167619Y-103878095D01*
X91262857Y-103925714D01*
X91500952Y-103925714D01*
X91596190Y-103878095D01*
X91643809Y-103830476D01*
X91691428Y-103735238D01*
X91691428Y-103544761D01*
X91643809Y-103449523D01*
X91596190Y-103401904D01*
X91500952Y-103354285D01*
D13*
%TO.C,J5*%
X145540000Y-73096529D02*
X145540000Y-72550000D01*
X145540000Y-74770000D02*
X145540000Y-74223471D01*
X144020000Y-74770000D02*
X144020000Y-73660000D01*
X145540000Y-74770000D02*
X146745000Y-74770000D01*
X146745000Y-74770000D02*
X146745000Y-73967530D01*
X144780000Y-74770000D02*
X144020000Y-74770000D01*
X145540000Y-72550000D02*
X146745000Y-72550000D01*
X146745000Y-73352470D02*
X146745000Y-72550000D01*
%TO.C,C3*%
X108240000Y-101640000D02*
X108240000Y-109880000D01*
X109604000Y-109880000D02*
X108240000Y-109880000D01*
X113480000Y-101640000D02*
X112116000Y-101640000D01*
X113480000Y-101640000D02*
X113480000Y-109880000D01*
X109604000Y-101640000D02*
X108240000Y-101640000D01*
X113480000Y-109880000D02*
X112116000Y-109880000D01*
%TO.C,C4*%
X105860000Y-101640000D02*
X104496000Y-101640000D01*
X101984000Y-101640000D02*
X100620000Y-101640000D01*
X105860000Y-101640000D02*
X105860000Y-109880000D01*
X101984000Y-109880000D02*
X100620000Y-109880000D01*
X105860000Y-109880000D02*
X104496000Y-109880000D01*
X100620000Y-101640000D02*
X100620000Y-109880000D01*
%TO.C,R7*%
X79560000Y-108760000D02*
X83000000Y-108760000D01*
X81280000Y-98830000D02*
X81280000Y-99520000D01*
X81280000Y-109450000D02*
X81280000Y-108760000D01*
X83000000Y-99520000D02*
X79560000Y-99520000D01*
X79560000Y-99520000D02*
X79560000Y-108760000D01*
X83000000Y-108760000D02*
X83000000Y-99520000D01*
%TO.C,Y1*%
X51960000Y-106040000D02*
X51960000Y-106040000D01*
X51610000Y-99940000D02*
X43210000Y-99940000D01*
X51610000Y-102240000D02*
X51960000Y-102240000D01*
X51610000Y-108340000D02*
X51610000Y-99940000D01*
X51730000Y-99590000D02*
X51730000Y-108690000D01*
X43210000Y-108340000D02*
X51610000Y-108340000D01*
X43210000Y-99940000D02*
X43210000Y-108340000D01*
X51960000Y-102240000D02*
X51960000Y-102240000D01*
X51610000Y-99590000D02*
X51730000Y-99590000D01*
X51610000Y-106040000D02*
X51960000Y-106040000D01*
X51610000Y-108690000D02*
X51610000Y-99590000D01*
X51730000Y-108690000D02*
X51610000Y-108690000D01*
%TO.C,R2*%
X58420000Y-98830000D02*
X58420000Y-99520000D01*
X56700000Y-108760000D02*
X60140000Y-108760000D01*
X56700000Y-99520000D02*
X56700000Y-108760000D01*
X58420000Y-109450000D02*
X58420000Y-108760000D01*
X60140000Y-99520000D02*
X56700000Y-99520000D01*
X60140000Y-108760000D02*
X60140000Y-99520000D01*
%TO.C,R4*%
X75380000Y-99520000D02*
X71940000Y-99520000D01*
X71940000Y-108760000D02*
X75380000Y-108760000D01*
X73660000Y-98830000D02*
X73660000Y-99520000D01*
X75380000Y-108760000D02*
X75380000Y-99520000D01*
X71940000Y-99520000D02*
X71940000Y-108760000D01*
X73660000Y-109450000D02*
X73660000Y-108760000D01*
%TO.C,R5*%
X119840000Y-72840000D02*
X129080000Y-72840000D01*
X129080000Y-69400000D02*
X119840000Y-69400000D01*
X129080000Y-72840000D02*
X129080000Y-69400000D01*
X119840000Y-69400000D02*
X119840000Y-72840000D01*
X129770000Y-71120000D02*
X129080000Y-71120000D01*
X119150000Y-71120000D02*
X119840000Y-71120000D01*
%TO.C,R12*%
X47440000Y-69390000D02*
X47440000Y-60150000D01*
X44000000Y-60150000D02*
X44000000Y-69390000D01*
X45720000Y-70080000D02*
X45720000Y-69390000D01*
X47440000Y-60150000D02*
X44000000Y-60150000D01*
X44000000Y-69390000D02*
X47440000Y-69390000D01*
X45720000Y-59460000D02*
X45720000Y-60150000D01*
%TO.C,U1*%
X79835000Y-58285000D02*
X79835000Y-94085000D01*
X82835000Y-58345000D02*
X82835000Y-94025000D01*
X97955000Y-94085000D02*
X97955000Y-58285000D01*
X79835000Y-94085000D02*
X97955000Y-94085000D01*
X97955000Y-58285000D02*
X79835000Y-58285000D01*
X94955000Y-58345000D02*
X89895000Y-58345000D01*
X82835000Y-94025000D02*
X94955000Y-94025000D01*
X94955000Y-94025000D02*
X94955000Y-58345000D01*
X87895000Y-58345000D02*
X82835000Y-58345000D01*
X87895000Y-58345000D02*
G75*
G03*
X89895000Y-58345000I1000000J0D01*
G01*
%TO.C,U2*%
X111940000Y-87745000D02*
X111940000Y-69725000D01*
X108940000Y-69785000D02*
X107690000Y-69785000D01*
X101440000Y-87745000D02*
X111940000Y-87745000D01*
X101440000Y-69725000D02*
X101440000Y-87745000D01*
X104440000Y-69785000D02*
X104440000Y-87685000D01*
X108940000Y-87685000D02*
X108940000Y-69785000D01*
X105690000Y-69785000D02*
X104440000Y-69785000D01*
X104440000Y-87685000D02*
X108940000Y-87685000D01*
X111940000Y-69725000D02*
X101440000Y-69725000D01*
X105690000Y-69785000D02*
G75*
G03*
X107690000Y-69785000I1000000J0D01*
G01*
%TO.C,R10*%
X129080000Y-88080000D02*
X129080000Y-84640000D01*
X119840000Y-84640000D02*
X119840000Y-88080000D01*
X119840000Y-88080000D02*
X129080000Y-88080000D01*
X129770000Y-86360000D02*
X129080000Y-86360000D01*
X119150000Y-86360000D02*
X119840000Y-86360000D01*
X129080000Y-84640000D02*
X119840000Y-84640000D01*
%TO.C,R6*%
X119840000Y-57600000D02*
X129080000Y-57600000D01*
X129770000Y-55880000D02*
X129080000Y-55880000D01*
X119150000Y-55880000D02*
X119840000Y-55880000D01*
X129080000Y-54160000D02*
X119840000Y-54160000D01*
X119840000Y-54160000D02*
X119840000Y-57600000D01*
X129080000Y-57600000D02*
X129080000Y-54160000D01*
%TO.C,J4*%
X151390000Y-83790000D02*
X151390000Y-94010000D01*
X138170000Y-94010000D02*
X138170000Y-91200000D01*
X138170000Y-83790000D02*
X144230000Y-83790000D01*
X138170000Y-86600000D02*
X138170000Y-83790000D01*
X151390000Y-94010000D02*
X148330000Y-94010000D01*
X148330000Y-83790000D02*
X151390000Y-83790000D01*
X137980000Y-89900000D02*
X137980000Y-87900000D01*
X144230000Y-94010000D02*
X138170000Y-94010000D01*
%TO.C,U3*%
X127980000Y-113090000D02*
X127980000Y-95190000D01*
X127980000Y-95190000D02*
X126730000Y-95190000D01*
X123480000Y-113090000D02*
X127980000Y-113090000D01*
X124730000Y-95190000D02*
X123480000Y-95190000D01*
X130980000Y-95130000D02*
X120480000Y-95130000D01*
X130980000Y-113150000D02*
X130980000Y-95130000D01*
X123480000Y-95190000D02*
X123480000Y-113090000D01*
X120480000Y-113150000D02*
X130980000Y-113150000D01*
X120480000Y-95130000D02*
X120480000Y-113150000D01*
X124730000Y-95190000D02*
G75*
G03*
X126730000Y-95190000I1000000J0D01*
G01*
D14*
%TO.C,J3*%
X138780000Y-58960000D02*
X138780000Y-55960000D01*
X138780000Y-65960000D02*
X138780000Y-62960000D01*
X138780000Y-65960000D02*
X146760000Y-65960000D01*
X138780000Y-62960000D02*
X139180000Y-62960000D01*
X139180000Y-58960000D02*
X138780000Y-58960000D01*
X138780000Y-55960000D02*
X146760000Y-55960000D01*
X139180000Y-62960000D02*
X139180000Y-62130000D01*
X148780000Y-63960000D02*
X148780000Y-57960000D01*
X139180000Y-59790000D02*
X139180000Y-58960000D01*
D15*
X144880000Y-66473000D02*
G75*
G03*
X144880000Y-66473000I-100000J0D01*
G01*
D13*
%TO.C,Q1*%
X107370000Y-60430000D02*
X107370000Y-64030000D01*
X107381522Y-64068478D02*
G75*
G03*
X111820000Y-62230000I1838478J1838478D01*
G01*
X111820001Y-62230000D02*
G75*
G03*
X107381522Y-60391522I-2600001J0D01*
G01*
%TO.C,J2*%
X55670000Y-62230000D02*
X55140000Y-62230000D01*
X59560000Y-86830000D02*
X59560000Y-88430000D01*
X60160000Y-58890000D02*
X59560000Y-58890000D01*
X59560000Y-66510000D02*
X59560000Y-68110000D01*
X55140000Y-90170000D02*
X55670000Y-89920000D01*
X55140000Y-90170000D02*
X55140000Y-85090000D01*
X59560000Y-78270000D02*
X60160000Y-78270000D01*
X59560000Y-79210000D02*
X59560000Y-80810000D01*
X59560000Y-76670000D02*
X59560000Y-78270000D01*
X59560000Y-71590000D02*
X59560000Y-73190000D01*
X60160000Y-89370000D02*
X59560000Y-89370000D01*
X59560000Y-69050000D02*
X59560000Y-70650000D01*
X59560000Y-63970000D02*
X59560000Y-65570000D01*
X59560000Y-83350000D02*
X60160000Y-83350000D01*
X59560000Y-88430000D02*
X60160000Y-88430000D01*
X54140000Y-91550000D02*
X60160000Y-91550000D01*
X59130000Y-55480000D02*
X55130000Y-55480000D01*
X60160000Y-71590000D02*
X59560000Y-71590000D01*
X59560000Y-74130000D02*
X59560000Y-75730000D01*
X60160000Y-79210000D02*
X59560000Y-79210000D01*
X59560000Y-84290000D02*
X59560000Y-85890000D01*
X60160000Y-56350000D02*
X59560000Y-56350000D01*
X54140000Y-55770000D02*
X54140000Y-91550000D01*
X55140000Y-85090000D02*
X54140000Y-85090000D01*
X59560000Y-61430000D02*
X59560000Y-63030000D01*
X60160000Y-63970000D02*
X59560000Y-63970000D01*
X59560000Y-60490000D02*
X60160000Y-60490000D01*
X59560000Y-63030000D02*
X60160000Y-63030000D01*
X54140000Y-57400000D02*
X55140000Y-57400000D01*
X60160000Y-86830000D02*
X59560000Y-86830000D01*
X59560000Y-80810000D02*
X60160000Y-80810000D01*
X59560000Y-73190000D02*
X60160000Y-73190000D01*
X59560000Y-70650000D02*
X60160000Y-70650000D01*
X60160000Y-76670000D02*
X59560000Y-76670000D01*
X60160000Y-74130000D02*
X59560000Y-74130000D01*
X59560000Y-56350000D02*
X59560000Y-57950000D01*
X55140000Y-62230000D02*
X54140000Y-62230000D01*
X60160000Y-81750000D02*
X59560000Y-81750000D01*
X59560000Y-85890000D02*
X60160000Y-85890000D01*
X55670000Y-89920000D02*
X55670000Y-85090000D01*
X60160000Y-91550000D02*
X60160000Y-55770000D01*
X60160000Y-69050000D02*
X59560000Y-69050000D01*
X54140000Y-89920000D02*
X55140000Y-89920000D01*
X59560000Y-75730000D02*
X60160000Y-75730000D01*
X54140000Y-90170000D02*
X55140000Y-90170000D01*
X55140000Y-57150000D02*
X55140000Y-62230000D01*
X59560000Y-58890000D02*
X59560000Y-60490000D01*
X59560000Y-81750000D02*
X59560000Y-83350000D01*
X59560000Y-90970000D02*
X60160000Y-90970000D01*
X60160000Y-61430000D02*
X59560000Y-61430000D01*
X55670000Y-85090000D02*
X55140000Y-85090000D01*
X55670000Y-57400000D02*
X55670000Y-62230000D01*
X59560000Y-68110000D02*
X60160000Y-68110000D01*
X55140000Y-57150000D02*
X55670000Y-57400000D01*
X59560000Y-65570000D02*
X60160000Y-65570000D01*
X60160000Y-55770000D02*
X54140000Y-55770000D01*
X59560000Y-89370000D02*
X59560000Y-90970000D01*
X60160000Y-66510000D02*
X59560000Y-66510000D01*
X60160000Y-84290000D02*
X59560000Y-84290000D01*
X59560000Y-57950000D02*
X60160000Y-57950000D01*
X54140000Y-57150000D02*
X55140000Y-57150000D01*
%TO.C,R11*%
X129080000Y-77020000D02*
X119840000Y-77020000D01*
X119150000Y-78740000D02*
X119840000Y-78740000D01*
X119840000Y-77020000D02*
X119840000Y-80460000D01*
X129080000Y-80460000D02*
X129080000Y-77020000D01*
X129770000Y-78740000D02*
X129080000Y-78740000D01*
X119840000Y-80460000D02*
X129080000Y-80460000D01*
%TO.C,C1*%
X43100000Y-82860000D02*
X44464000Y-82860000D01*
X48340000Y-82860000D02*
X48340000Y-74620000D01*
X43100000Y-74620000D02*
X44464000Y-74620000D01*
X46976000Y-82860000D02*
X48340000Y-82860000D01*
X46976000Y-74620000D02*
X48340000Y-74620000D01*
X43100000Y-82860000D02*
X43100000Y-74620000D01*
%TO.C,R1*%
X64320000Y-99520000D02*
X64320000Y-108760000D01*
X67760000Y-108760000D02*
X67760000Y-99520000D01*
X66040000Y-109450000D02*
X66040000Y-108760000D01*
X66040000Y-98830000D02*
X66040000Y-99520000D01*
X64320000Y-108760000D02*
X67760000Y-108760000D01*
X67760000Y-99520000D02*
X64320000Y-99520000D01*
%TO.C,R3*%
X119150000Y-63500000D02*
X119840000Y-63500000D01*
X119840000Y-65220000D02*
X129080000Y-65220000D01*
X129080000Y-61780000D02*
X119840000Y-61780000D01*
X129770000Y-63500000D02*
X129080000Y-63500000D01*
X129080000Y-65220000D02*
X129080000Y-61780000D01*
X119840000Y-61780000D02*
X119840000Y-65220000D01*
%TO.C,R8*%
X96520000Y-99180000D02*
X96520000Y-99870000D01*
X96520000Y-109800000D02*
X96520000Y-109110000D01*
X94800000Y-109110000D02*
X98240000Y-109110000D01*
X98240000Y-109110000D02*
X98240000Y-99870000D01*
X94800000Y-99870000D02*
X94800000Y-109110000D01*
X98240000Y-99870000D02*
X94800000Y-99870000D01*
%TO.C,J1*%
X148750000Y-101570000D02*
X151810000Y-101570000D01*
X151810000Y-111790000D02*
X148750000Y-111790000D01*
X151810000Y-101570000D02*
X151810000Y-111790000D01*
X144650000Y-111790000D02*
X138590000Y-111790000D01*
X138590000Y-111790000D02*
X138590000Y-108980000D01*
X138590000Y-104380000D02*
X138590000Y-101570000D01*
X138400000Y-107680000D02*
X138400000Y-105680000D01*
X138590000Y-101570000D02*
X144650000Y-101570000D01*
%TO.C,C2*%
X46976000Y-95560000D02*
X48340000Y-95560000D01*
X46976000Y-87320000D02*
X48340000Y-87320000D01*
X43100000Y-87320000D02*
X44464000Y-87320000D01*
X48340000Y-95560000D02*
X48340000Y-87320000D01*
X43100000Y-95560000D02*
X44464000Y-95560000D01*
X43100000Y-95560000D02*
X43100000Y-87320000D01*
%TO.C,R9*%
X88900000Y-109450000D02*
X88900000Y-108760000D01*
X88900000Y-98830000D02*
X88900000Y-99520000D01*
X90620000Y-108760000D02*
X90620000Y-99520000D01*
X87180000Y-99520000D02*
X87180000Y-108760000D01*
X87180000Y-108760000D02*
X90620000Y-108760000D01*
X90620000Y-99520000D02*
X87180000Y-99520000D01*
%TD*%
M02*
