%TF.GenerationSoftware,KiCad,Pcbnew,(6.0.9-0)*%
%TF.CreationDate,2023-01-07T16:42:32-08:00*%
%TF.ProjectId,Pong,506f6e67-2e6b-4696-9361-645f70636258,rev?*%
%TF.SameCoordinates,Original*%
%TF.FileFunction,Soldermask,Bot*%
%TF.FilePolarity,Negative*%
%FSLAX46Y46*%
G04 Gerber Fmt 4.6, Leading zero omitted, Abs format (unit mm)*
G04 Created by KiCad (PCBNEW (6.0.9-0)) date 2023-01-07 16:42:32*
%MOMM*%
%LPD*%
G01*
G04 APERTURE LIST*
G04 Aperture macros list*
%AMRoundRect*
0 Rectangle with rounded corners*
0 $1 Rounding radius*
0 $2 $3 $4 $5 $6 $7 $8 $9 X,Y pos of 4 corners*
0 Add a 4 corners polygon primitive as box body*
4,1,4,$2,$3,$4,$5,$6,$7,$8,$9,$2,$3,0*
0 Add four circle primitives for the rounded corners*
1,1,$1+$1,$2,$3*
1,1,$1+$1,$4,$5*
1,1,$1+$1,$6,$7*
1,1,$1+$1,$8,$9*
0 Add four rect primitives between the rounded corners*
20,1,$1+$1,$2,$3,$4,$5,0*
20,1,$1+$1,$4,$5,$6,$7,0*
20,1,$1+$1,$6,$7,$8,$9,0*
20,1,$1+$1,$8,$9,$2,$3,0*%
G04 Aperture macros list end*
%ADD10R,1.000000X1.000000*%
%ADD11O,1.000000X1.000000*%
%ADD12C,2.000000*%
%ADD13C,1.600000*%
%ADD14O,1.600000X1.600000*%
%ADD15C,1.500000*%
%ADD16R,2.400000X1.600000*%
%ADD17O,2.400000X1.600000*%
%ADD18R,2.000000X4.000000*%
%ADD19O,2.000000X3.300000*%
%ADD20O,3.500000X2.000000*%
%ADD21O,1.950000X3.900000*%
%ADD22O,3.400000X1.700000*%
%ADD23R,1.500000X1.050000*%
%ADD24O,1.500000X1.050000*%
%ADD25RoundRect,0.250000X-0.845000X0.620000X-0.845000X-0.620000X0.845000X-0.620000X0.845000X0.620000X0*%
%ADD26O,2.190000X1.740000*%
G04 APERTURE END LIST*
D10*
%TO.C,J5*%
X144780000Y-73660000D03*
D11*
X146050000Y-73660000D03*
%TD*%
D12*
%TO.C,C3*%
X110860000Y-102010000D03*
X110860000Y-109510000D03*
%TD*%
%TO.C,C4*%
X103240000Y-102010000D03*
X103240000Y-109510000D03*
%TD*%
D13*
%TO.C,R7*%
X81280000Y-110490000D03*
D14*
X81280000Y-97790000D03*
%TD*%
D15*
%TO.C,Y1*%
X52910000Y-102240000D03*
X52910000Y-106040000D03*
%TD*%
D13*
%TO.C,R2*%
X58420000Y-110490000D03*
D14*
X58420000Y-97790000D03*
%TD*%
D13*
%TO.C,R4*%
X73660000Y-110490000D03*
D14*
X73660000Y-97790000D03*
%TD*%
D13*
%TO.C,R5*%
X118110000Y-71120000D03*
D14*
X130810000Y-71120000D03*
%TD*%
D13*
%TO.C,R12*%
X45720000Y-58420000D03*
D14*
X45720000Y-71120000D03*
%TD*%
D16*
%TO.C,U1*%
X81275000Y-59675000D03*
D17*
X81275000Y-62215000D03*
X81275000Y-64755000D03*
X81275000Y-67295000D03*
X81275000Y-69835000D03*
X81275000Y-72375000D03*
X81275000Y-74915000D03*
X81275000Y-77455000D03*
X81275000Y-79995000D03*
X81275000Y-82535000D03*
X81275000Y-85075000D03*
X81275000Y-87615000D03*
X81275000Y-90155000D03*
X81275000Y-92695000D03*
X96515000Y-92695000D03*
X96515000Y-90155000D03*
X96515000Y-87615000D03*
X96515000Y-85075000D03*
X96515000Y-82535000D03*
X96515000Y-79995000D03*
X96515000Y-77455000D03*
X96515000Y-74915000D03*
X96515000Y-72375000D03*
X96515000Y-69835000D03*
X96515000Y-67295000D03*
X96515000Y-64755000D03*
X96515000Y-62215000D03*
X96515000Y-59675000D03*
%TD*%
D16*
%TO.C,U2*%
X102880000Y-71115000D03*
D17*
X102880000Y-73655000D03*
X102880000Y-76195000D03*
X102880000Y-78735000D03*
X102880000Y-81275000D03*
X102880000Y-83815000D03*
X102880000Y-86355000D03*
X110500000Y-86355000D03*
X110500000Y-83815000D03*
X110500000Y-81275000D03*
X110500000Y-78735000D03*
X110500000Y-76195000D03*
X110500000Y-73655000D03*
X110500000Y-71115000D03*
%TD*%
D13*
%TO.C,R10*%
X130810000Y-86360000D03*
D14*
X118110000Y-86360000D03*
%TD*%
D13*
%TO.C,R6*%
X118110000Y-55880000D03*
D14*
X130810000Y-55880000D03*
%TD*%
D13*
%TO.C,J4*%
X148280000Y-88900000D03*
D18*
X139280000Y-88900000D03*
D19*
X145280000Y-88900000D03*
D20*
X146280000Y-93400000D03*
X146280000Y-84400000D03*
%TD*%
D16*
%TO.C,U3*%
X121920000Y-96520000D03*
D17*
X121920000Y-99060000D03*
X121920000Y-101600000D03*
X121920000Y-104140000D03*
X121920000Y-106680000D03*
X121920000Y-109220000D03*
X121920000Y-111760000D03*
X129540000Y-111760000D03*
X129540000Y-109220000D03*
X129540000Y-106680000D03*
X129540000Y-104140000D03*
X129540000Y-101600000D03*
X129540000Y-99060000D03*
X129540000Y-96520000D03*
%TD*%
D21*
%TO.C,J3*%
X144780000Y-60960000D03*
D22*
X140280000Y-60960000D03*
%TD*%
D23*
%TO.C,Q1*%
X109220000Y-60960000D03*
D24*
X109220000Y-62230000D03*
X109220000Y-63500000D03*
%TD*%
D25*
%TO.C,J2*%
X57130000Y-57150000D03*
D26*
X57130000Y-59690000D03*
X57130000Y-62230000D03*
X57130000Y-64770000D03*
X57130000Y-67310000D03*
X57130000Y-69850000D03*
X57130000Y-72390000D03*
X57130000Y-74930000D03*
X57130000Y-77470000D03*
X57130000Y-80010000D03*
X57130000Y-82550000D03*
X57130000Y-85090000D03*
X57130000Y-87630000D03*
X57130000Y-90170000D03*
%TD*%
D13*
%TO.C,R11*%
X130810000Y-78740000D03*
D14*
X118110000Y-78740000D03*
%TD*%
D12*
%TO.C,C1*%
X45720000Y-82490000D03*
X45720000Y-74990000D03*
%TD*%
D13*
%TO.C,R1*%
X66040000Y-97790000D03*
D14*
X66040000Y-110490000D03*
%TD*%
D13*
%TO.C,R3*%
X118110000Y-63500000D03*
D14*
X130810000Y-63500000D03*
%TD*%
%TO.C,R8*%
X96520000Y-110840000D03*
D13*
X96520000Y-98140000D03*
%TD*%
%TO.C,J1*%
X148700000Y-106680000D03*
D18*
X139700000Y-106680000D03*
D19*
X145700000Y-106680000D03*
D20*
X146700000Y-111180000D03*
X146700000Y-102180000D03*
%TD*%
D12*
%TO.C,C2*%
X45720000Y-95190000D03*
X45720000Y-87690000D03*
%TD*%
D14*
%TO.C,R9*%
X88900000Y-110490000D03*
D13*
X88900000Y-97790000D03*
%TD*%
M02*
