M48
; DRILL file {KiCad (6.0.9-0)} date Saturday, January 07, 2023 at 04:42:28 PM
; FORMAT={-:-/ absolute / inch / decimal}
; #@! TF.CreationDate,2023-01-07T16:42:28-08:00
; #@! TF.GenerationSoftware,Kicad,Pcbnew,(6.0.9-0)
; #@! TF.FileFunction,Plated,1,2,PTH
FMAT,2
INCH
; #@! TA.AperFunction,Plated,PTH,ViaDrill
T1C0.0157
; #@! TA.AperFunction,Plated,PTH,ComponentDrill
T2C0.0256
; #@! TA.AperFunction,Plated,PTH,ComponentDrill
T3C0.0295
; #@! TA.AperFunction,Plated,PTH,ComponentDrill
T4C0.0315
; #@! TA.AperFunction,Plated,PTH,ComponentDrill
T5C0.0394
; #@! TA.AperFunction,Plated,PTH,ComponentDrill
T6C0.0469
; #@! TA.AperFunction,Plated,PTH,ComponentDrill
T7C0.0512
%
G90
G05
T1
X2.9Y-3.75
X3.8Y-3.75
X4.4Y-3.8
X4.95Y-3.25
X5.3Y-2.7
X5.4Y-3.1
T2
X5.7Y-2.9
X5.75Y-2.9
T3
X4.3Y-2.4
X4.3Y-2.45
X4.3Y-2.5
T4
X1.8Y-2.3
X1.8Y-2.8
X2.0831Y-4.0252
X2.0831Y-4.1748
X2.3Y-3.85
X2.3Y-4.35
X2.6Y-3.85
X2.6Y-4.35
X2.9Y-3.85
X2.9Y-4.35
X3.1998Y-2.3494
X3.1998Y-2.4494
X3.1998Y-2.5494
X3.1998Y-2.6494
X3.1998Y-2.7494
X3.1998Y-2.8494
X3.1998Y-2.9494
X3.1998Y-3.0494
X3.1998Y-3.1494
X3.1998Y-3.2494
X3.1998Y-3.3494
X3.1998Y-3.4494
X3.1998Y-3.5494
X3.1998Y-3.6494
X3.2Y-3.85
X3.2Y-4.35
X3.5Y-3.85
X3.5Y-4.35
X3.7998Y-2.3494
X3.7998Y-2.4494
X3.7998Y-2.5494
X3.7998Y-2.6494
X3.7998Y-2.7494
X3.7998Y-2.8494
X3.7998Y-2.9494
X3.7998Y-3.0494
X3.7998Y-3.1494
X3.7998Y-3.2494
X3.7998Y-3.3494
X3.7998Y-3.4494
X3.7998Y-3.5494
X3.7998Y-3.6494
X3.8Y-3.8638
X3.8Y-4.3638
X4.0504Y-2.7998
X4.0504Y-2.8998
X4.0504Y-2.9998
X4.0504Y-3.0998
X4.0504Y-3.1998
X4.0504Y-3.2998
X4.0504Y-3.3998
X4.3504Y-2.7998
X4.3504Y-2.8998
X4.3504Y-2.9998
X4.3504Y-3.0998
X4.3504Y-3.1998
X4.3504Y-3.2998
X4.3504Y-3.3998
X4.65Y-2.2
X4.65Y-2.5
X4.65Y-2.8
X4.65Y-3.1
X4.65Y-3.4
X4.8Y-3.8
X4.8Y-3.9
X4.8Y-4.0
X4.8Y-4.1
X4.8Y-4.2
X4.8Y-4.3
X4.8Y-4.4
X5.1Y-3.8
X5.1Y-3.9
X5.1Y-4.0
X5.1Y-4.1
X5.1Y-4.2
X5.1Y-4.3
X5.1Y-4.4
X5.15Y-2.2
X5.15Y-2.5
X5.15Y-2.8
X5.15Y-3.1
X5.15Y-3.4
T5
X1.8Y-2.9524
X1.8Y-3.2476
X1.8Y-3.4524
X1.8Y-3.7476
X4.0646Y-4.0161
X4.0646Y-4.3114
X4.3646Y-4.0161
X4.3646Y-4.3114
T6
X2.2492Y-2.25
X2.2492Y-2.35
X2.2492Y-2.45
X2.2492Y-2.55
X2.2492Y-2.65
X2.2492Y-2.75
X2.2492Y-2.85
X2.2492Y-2.95
X2.2492Y-3.05
X2.2492Y-3.15
X2.2492Y-3.25
X2.2492Y-3.35
X2.2492Y-3.45
X2.2492Y-3.55
T5
G00X5.4835Y-3.5394
M15
G01X5.4835Y-3.4606
M16
G05
G00X5.5Y-4.2394
M15
G01X5.5Y-4.1606
M16
G05
G00X5.4933Y-2.4
M15
G01X5.5524Y-2.4
M16
G05
G00X5.7197Y-3.5256
M15
G01X5.7197Y-3.4744
M16
G05
G00X5.7362Y-4.2256
M15
G01X5.7362Y-4.1744
M16
G05
G00X5.7295Y-3.3228
M15
G01X5.7886Y-3.3228
M16
G05
G00X5.7295Y-3.6772
M15
G01X5.7886Y-3.6772
M16
G05
G00X5.7461Y-4.0228
M15
G01X5.8051Y-4.0228
M16
G05
G00X5.7461Y-4.3772
M15
G01X5.8051Y-4.3772
M16
G05
T7
G00X5.7Y-2.3764
M15
G01X5.7Y-2.4236
M16
G05
T0
M30
